<?xml version="1.0" encoding="UTF-8" standalone="no"?>
<!DOCTYPE svg PUBLIC "-//W3C//DTD SVG 1.1//EN" "http://www.w3.org/Graphics/SVG/1.1/DTD/svg11.dtd">
<svg xmlns="http://www.w3.org/2000/svg" version="1.1" viewBox="0.00 0.00 375.00 666.00">
<g stroke-width="2.00" fill="none" stroke-linecap="butt">
<path stroke="#d2c8ac" vector-effect="non-scaling-stroke" d="
  M 315.94 274.25
  Q 314.81 274.11 314.12 272.67
  Q 310.45 265.05 306.92 257.86"
/>
<path stroke="#f9e39c" vector-effect="non-scaling-stroke" d="
  M 306.92 257.86
  L 303.01 257.79
  Q 302.48 257.78 302.62 257.26
  Q 302.89 256.25 303.78 255.93
  Q 304.07 255.83 304.25 255.58
  C 305.03 254.54 306.07 254.07 306.86 253.07
  C 308.82 250.56 309.76 246.55 308.06 243.61
  Q 307.18 242.09 307.86 240.19
  C 308.32 238.89 309.29 238.47 309.94 237.38
  Q 310.60 236.28 311.56 235.47
  Q 313.80 233.56 314.97 231.05
  A 2.25 2.24 17.0 0 0 313.28 227.88
  Q 310.22 227.41 308.98 224.73"
/>
<path stroke="#cdba82" vector-effect="non-scaling-stroke" d="
  M 306.92 257.86
  L 284.65 257.89
  Q 284.25 257.89 284.28 258.28
  Q 284.28 258.42 284.41 258.50
  Q 284.64 258.63 284.91 258.66
  Q 290.77 259.11 290.39 265.60"
/>
<path stroke="#f6dc8b" vector-effect="non-scaling-stroke" d="
  M 290.39 265.60
  Q 287.24 269.42 284.57 272.82
  Q 284.01 273.53 282.75 274.25
  Q 282.01 274.67 282.02 275.65"
/>
<path stroke="#857842" vector-effect="non-scaling-stroke" d="
  M 282.02 275.65
  L 261.44 276.66"
/>
<path stroke="#cdba82" vector-effect="non-scaling-stroke" d="
  M 261.44 276.66
  Q 261.75 274.26 261.61 271.95
  Q 261.46 269.48 261.43 267.28
  C 261.39 264.16 260.71 259.26 264.78 258.34
  Q 265.47 258.19 266.43 257.89"
/>
<path stroke="#d2c8ac" vector-effect="non-scaling-stroke" d="
  M 311.72 279.93
  L 305.85 266.39
  Q 304.84 264.06 304.78 266.60
  L 304.37 285.72"
/>
<path stroke="#d2c8ac" vector-effect="non-scaling-stroke" d="
  M 301.75 289.25
  Q 302.13 289.31 302.33 289.20
  Q 302.51 289.10 302.51 288.74
  Q 302.69 275.56 302.89 262.39
  Q 302.92 260.66 301.07 259.66"
/>
<path stroke="#cfc29b" vector-effect="non-scaling-stroke" d="
  M 301.07 259.66
  Q 298.72 258.29 295.72 259.07
  C 291.92 260.06 291.79 265.95 292.19 269.20"
/>
<path stroke="#d2c8ac" vector-effect="non-scaling-stroke" d="
  M 292.19 269.20
  Q 291.99 277.85 291.97 286.50
  C 291.96 290.91 290.98 296.22 287.74 299.23
  Q 285.67 301.15 283.04 302.48
  C 274.95 306.56 265.77 304.21 259.77 297.66"
/>
<path stroke="#cdba82" vector-effect="non-scaling-stroke" d="
  M 259.77 297.66
  Q 257.44 294.00 257.02 290.00
  Q 256.55 285.46 257.04 279.95"
/>
<path stroke="#5e5d52" vector-effect="non-scaling-stroke" d="
  M 257.04 279.95
  L 261.92 279.48"
/>
<path stroke="#cfc29b" vector-effect="non-scaling-stroke" d="
  M 261.92 279.48
  Q 260.20 289.13 265.05 297.23
  Q 265.32 297.67 265.77 297.90
  Q 266.33 298.19 266.70 298.71
  Q 268.00 300.54 270.09 301.20
  C 275.88 303.02 281.64 303.01 286.31 298.99
  Q 288.73 296.91 289.56 294.15
  Q 290.52 290.95 290.57 288.00
  Q 290.77 277.01 290.39 265.60"
/>
<path stroke="#87805b" vector-effect="non-scaling-stroke" d="
  M 251.46 268.47
  L 249.71 277.67
  Q 249.61 278.20 250.15 278.12
  L 256.85 277.12"
/>
<path stroke="#87805b" vector-effect="non-scaling-stroke" d="
  M 282.02 275.65
  C 283.05 276.04 284.38 276.44 284.69 277.59
  Q 284.92 278.45 284.19 279.02
  Q 283.78 279.34 283.31 279.13
  Q 280.71 278.00 276.50 278.29
  Q 269.25 278.78 261.92 279.48"
/>
<path stroke="#857842" vector-effect="non-scaling-stroke" d="
  M 257.04 279.95
  L 249.25 280.60
  A 0.87 0.87 0.0 0 0 248.48 281.24
  Q 247.21 285.75 245.48 290.32
  Q 244.24 293.63 244.02 298.09
  Q 243.71 304.64 243.71 311.21"
/>
<path stroke="#87805b" vector-effect="non-scaling-stroke" d="
  M 207.70 351.91
  Q 210.54 350.29 213.13 349.90
  A 1.57 1.56 -4.8 0 0 214.47 348.32
  Q 214.27 339.73 215.14 330.37
  Q 215.22 329.54 214.56 330.06
  C 210.93 332.99 204.24 337.55 203.81 328.39
  Q 203.76 327.47 203.28 328.25
  C 201.46 331.16 198.80 334.71 195.29 335.32
  Q 193.72 335.58 193.30 334.05
  C 191.93 328.98 199.18 321.92 202.61 319.82
  C 204.14 318.88 206.44 319.54 206.29 321.68
  Q 205.99 326.09 206.36 329.99
  Q 206.63 332.90 209.04 331.24
  L 213.18 328.39
  Q 215.53 326.77 215.77 323.92
  Q 216.71 312.85 219.92 300.02"
/>
<path stroke="#857842" vector-effect="non-scaling-stroke" d="
  M 219.92 300.02
  L 224.56 286.23
  Q 224.82 285.46 224.03 285.64
  L 220.74 286.40
  Q 220.03 286.56 220.54 287.08
  Q 220.91 287.46 220.76 287.97
  Q 220.60 288.48 220.08 288.59
  C 218.14 289.00 213.67 289.77 211.82 288.92
  A 0.56 0.56 0.0 0 1 211.75 287.94
  C 216.12 285.13 220.82 284.25 225.74 282.79
  A 1.57 1.56 -82.4 0 0 226.66 282.08
  L 229.14 277.98"
/>
<path stroke="#5e5d52" vector-effect="non-scaling-stroke" d="
  M 261.44 276.66
  L 256.85 277.12"
/>
<path stroke="#cfc29b" vector-effect="non-scaling-stroke" d="
  M 256.85 277.12
  L 256.58 266.66"
/>
<path stroke="#5e5d52" vector-effect="non-scaling-stroke" d="
  M 251.00 263.98
  Q 250.23 264.88 249.53 264.32"
/>
<path stroke="#cdba82" vector-effect="non-scaling-stroke" d="
  M 249.53 264.32
  Q 249.84 264.00 248.28 262.75"
/>
<path stroke="#cdba82" vector-effect="non-scaling-stroke" d="
  M 234.49 263.61
  Q 234.20 263.78 234.01 264.00
  Q 233.83 264.20 233.82 264.56
  Q 233.66 269.68 234.24 274.63"
/>
<path stroke="#5e5d52" vector-effect="non-scaling-stroke" d="
  M 234.24 274.63
  Q 231.65 274.73 229.14 277.98"
/>
<path stroke="#cdba82" vector-effect="non-scaling-stroke" d="
  M 229.14 277.98
  L 228.76 266.69"
/>
<path stroke="#cdba82" vector-effect="non-scaling-stroke" d="
  M 218.54 259.37
  C 214.54 260.74 212.95 264.36 211.76 268.00
  Q 211.48 268.84 211.18 268.01
  C 210.37 265.73 211.44 262.18 211.34 259.90
  Q 211.26 257.94 209.53 258.86
  L 209.02 259.13
  Q 207.15 260.12 206.96 262.23
  Q 206.25 269.88 206.73 278.01
  Q 206.76 278.56 207.80 278.03"
/>
<path stroke="#cdba82" vector-effect="non-scaling-stroke" d="
  M 206.47 283.39
  L 206.65 300.96"
/>
<path stroke="#d2c8ac" vector-effect="non-scaling-stroke" d="
  M 206.65 300.96
  L 206.52 303.97
  Q 206.46 305.46 205.50 304.32
  L 185.03 279.95"
/>
<path stroke="#d2c8ac" vector-effect="non-scaling-stroke" d="
  M 171.98 273.69
  Q 171.25 273.91 171.23 274.50
  Q 171.02 283.28 171.52 292.03"
/>
<path stroke="#cfc29b" vector-effect="non-scaling-stroke" d="
  M 171.52 292.03
  C 171.26 294.72 170.89 301.63 174.81 302.19
  Q 175.74 302.32 176.65 302.48
  Q 176.88 302.52 176.88 302.75
  L 176.88 303.04
  A 0.52 0.51 2.1 0 1 176.32 303.55
  C 171.00 303.10 165.92 303.64 160.56 303.17
  Q 156.08 302.78 150.53 303.61
  Q 150.38 303.63 150.36 303.48
  L 150.30 303.09
  Q 150.28 302.89 150.47 302.84
  L 154.83 301.77
  A 1.06 1.06 0.0 0 0 155.64 300.68
  C 155.52 298.53 154.36 297.18 153.53 295.33
  Q 151.10 289.91 148.33 284.32"
/>
<path stroke="#5e5d52" vector-effect="non-scaling-stroke" d="
  M 148.33 284.32
  L 151.88 280.80"
/>
<path stroke="#cbc4b2" vector-effect="non-scaling-stroke" d="
  M 151.88 280.80
  L 158.87 294.96"
/>
<path stroke="#5e5d52" vector-effect="non-scaling-stroke" d="
  M 158.87 294.96
  Q 158.62 295.94 157.72 296.53
  Q 157.25 296.83 157.23 296.27
  L 157.12 293.26
  A 0.67 0.67 0.0 0 0 156.55 292.62
  L 156.21 292.57
  A 0.46 0.46 0.0 0 0 155.68 293.04
  L 155.84 297.63
  Q 155.87 298.33 156.57 298.42
  Q 158.33 298.62 159.63 297.01"
/>
<path stroke="#cbc4b2" vector-effect="non-scaling-stroke" d="
  M 159.63 297.01
  Q 161.65 300.80 164.06 301.95
  C 165.94 302.84 168.49 301.55 168.95 299.39
  Q 169.31 297.72 169.36 296.13
  Q 169.77 283.91 169.38 272.12"
/>
<path stroke="#cdba82" vector-effect="non-scaling-stroke" d="
  M 187.43 274.74
  Q 192.31 281.56 198.20 287.98
  Q 198.54 288.35 198.85 288.41
  Q 199.30 288.50 199.66 288.21"
/>
<path stroke="#d2c8ac" vector-effect="non-scaling-stroke" d="
  M 201.10 289.40
  Q 200.37 289.44 200.27 290.06
  Q 200.18 290.60 200.51 291.05
  Q 202.31 293.44 204.13 295.66
  Q 204.64 296.27 204.73 295.48
  Q 205.22 291.14 204.27 287.06"
/>
<path stroke="#cdba82" vector-effect="non-scaling-stroke" d="
  M 205.08 282.71
  Q 205.28 269.17 204.92 265.00
  Q 204.60 261.18 202.03 258.64
  A 0.59 0.59 0.0 0 1 202.20 257.69
  Q 202.45 257.59 203.03 257.61"
/>
<path stroke="#8a866c" vector-effect="non-scaling-stroke" d="
  M 243.74 325.27
  Q 243.04 323.79 244.52 322.39
  Q 244.89 322.05 245.00 321.55
  Q 245.24 320.45 244.22 320.06
  Q 243.69 319.85 243.70 319.29
  L 243.71 311.21"
/>
<path stroke="#f9e39c" vector-effect="non-scaling-stroke" d="
  M 243.71 311.21
  Q 248.82 308.03 252.58 303.64
  Q 254.17 301.78 256.02 300.50
  Q 257.95 299.16 259.77 297.66"
/>
<path stroke="#fbebb5" vector-effect="non-scaling-stroke" d="
  M 301.07 259.66
  Q 300.90 259.92 300.54 259.90
  A 0.23 0.23 0.0 0 0 300.31 260.21
  Q 300.40 260.44 300.40 260.68
  A 1.04 1.02 67.1 0 1 300.14 261.34
  Q 298.32 263.31 296.63 265.54
  C 295.44 267.11 293.86 268.18 292.19 269.20"
/>
<path stroke="#857842" vector-effect="non-scaling-stroke" d="
  M 249.53 264.32
  Q 244.13 270.44 243.15 278.84
  A 0.36 0.36 0.0 0 1 242.86 279.15
  L 236.58 280.32
  A 0.19 0.19 0.0 0 1 236.36 280.11
  Q 236.91 276.16 234.24 274.63"
/>
<path stroke="#f6dc8b" vector-effect="non-scaling-stroke" d="
  M 219.92 300.02
  L 216.72 300.66
  Q 216.22 300.76 215.77 300.53
  Q 214.86 300.05 214.58 299.39"
/>
<path stroke="#f9e39c" vector-effect="non-scaling-stroke" d="
  M 214.58 299.39
  L 208.27 297.62
  Q 207.12 297.29 206.83 298.45
  Q 206.51 299.78 206.65 300.96"
/>
<path stroke="#fbebb5" vector-effect="non-scaling-stroke" d="
  M 193.70 374.07
  L 194.92 371.69
  Q 195.14 371.25 194.79 370.91
  Q 193.42 369.61 194.77 368.15
  A 0.63 0.62 32.3 0 0 194.54 367.15
  Q 194.20 367.02 193.43 367.20"
/>
<path stroke="#fbebb5" vector-effect="non-scaling-stroke" d="
  M 193.32 364.03
  L 192.40 358.54
  Q 192.32 358.04 192.62 357.63
  Q 193.30 356.71 194.21 356.02
  C 196.92 353.96 193.98 351.54 195.82 349.01
  C 196.75 347.73 196.98 346.46 197.01 344.92
  Q 197.02 344.39 197.35 343.97
  L 198.57 342.38
  A 1.17 1.17 0.0 0 0 197.89 340.52
  Q 194.86 339.85 191.82 340.96
  C 190.72 341.36 190.36 342.39 189.96 343.38
  A 1.80 1.79 -60.1 0 1 187.19 344.13
  Q 185.83 343.07 184.60 343.61
  Q 184.12 343.82 184.15 344.34
  Q 184.42 348.85 181.77 352.46
  Q 181.43 352.93 181.05 352.49
  Q 179.66 350.87 179.35 349.01
  Q 179.05 347.21 178.42 345.47
  Q 177.39 342.64 177.91 339.11
  Q 177.98 338.60 177.60 338.25
  Q 177.01 337.69 175.60 337.26"
/>
<path stroke="#d2c8ac" vector-effect="non-scaling-stroke" d="
  M 221.27 258.04
  Q 216.75 258.28 212.45 256.37
  A 0.99 0.98 41.5 0 0 211.56 256.42
  Q 207.70 258.71 203.03 257.61"
/>
<path stroke="#f9e39c" vector-effect="non-scaling-stroke" d="
  M 203.03 257.61
  Q 202.20 257.43 202.25 256.95"
/>
<path stroke="#cdba82" vector-effect="non-scaling-stroke" d="
  M 184.30 271.39
  L 176.17 261.39
  Q 175.90 261.05 175.90 260.61
  Q 175.90 260.26 175.71 260.14"
/>
<path stroke="#838272" vector-effect="non-scaling-stroke" d="
  M 158.87 294.96
  Q 163.01 288.55 160.99 282.49
  Q 158.91 276.28 151.88 280.80"
/>
<path stroke="#87805b" vector-effect="non-scaling-stroke" d="
  M 148.33 284.32
  C 146.07 287.14 143.95 289.69 142.25 292.77
  Q 131.37 312.44 130.34 334.51
  Q 130.03 341.28 131.92 346.98
  C 134.80 355.71 144.20 357.93 152.18 354.84
  Q 157.85 352.65 162.94 348.13
  C 165.60 345.77 167.46 342.88 170.63 341.16
  A 1.14 1.14 0.0 0 0 171.21 340.28
  Q 172.24 329.18 173.39 317.19
  Q 173.62 314.74 174.51 312.69
  Q 175.04 311.48 176.34 311.70
  Q 176.72 311.76 177.03 311.97
  Q 177.82 312.48 177.37 313.32
  Q 176.06 315.74 175.76 318.31
  Q 175.05 324.22 174.84 330.27
  Q 174.80 331.40 175.52 330.52
  C 176.63 329.16 177.44 327.77 178.87 326.57
  C 183.40 322.76 187.35 318.19 192.92 316.00
  Q 194.20 315.50 195.48 316.17
  Q 196.04 316.46 195.99 317.22
  A 0.86 0.85 -13.4 0 1 195.57 317.90
  Q 190.89 320.59 185.69 325.44
  Q 179.41 331.30 175.60 337.26"
/>
<path stroke="#8a866c" vector-effect="non-scaling-stroke" d="
  M 175.60 337.26
  L 174.46 347.24
  A 1.68 1.67 -5.7 0 1 173.30 348.65
  Q 171.30 349.28 170.67 346.80
  Q 170.43 345.85 170.62 344.84
  Q 170.84 343.73 170.05 344.55
  Q 164.58 350.28 158.23 354.95
  Q 149.30 361.52 137.24 357.33"
/>
<path stroke="#fbebb5" vector-effect="non-scaling-stroke" d="
  M 214.58 299.39
  Q 209.55 301.54 207.51 305.31
  A 0.86 0.86 0.0 0 1 206.93 305.74
  L 203.56 306.44
  A 2.10 2.06 16.0 0 0 202.53 307.00
  Q 201.19 308.32 199.61 307.88
  Q 199.13 307.75 198.88 308.19
  Q 198.03 309.70 196.32 308.96
  A 0.82 0.81 3.3 0 1 195.85 308.44
  Q 195.19 306.19 195.56 304.23
  Q 195.65 303.75 195.48 303.29
  Q 194.36 300.30 193.11 297.04
  Q 192.62 295.76 192.28 294.39
  Q 191.68 291.96 189.32 291.17
  A 2.35 2.35 0.0 0 0 186.22 293.31
  Q 186.19 294.27 185.80 295.22
  Q 185.46 296.08 185.28 297.07
  Q 184.33 302.41 179.17 302.19
  Q 178.64 302.17 178.28 301.77
  Q 177.75 301.19 177.60 300.41
  Q 177.52 299.97 177.25 299.61
  Q 175.20 296.87 172.44 295.03
  A 1.08 1.05 -79.5 0 1 171.99 294.36
  L 171.52 292.03"
/>
<path stroke="#838272" vector-effect="non-scaling-stroke" d="
  M 159.63 297.01
  C 162.57 292.43 164.16 289.41 164.12 284.67
  C 164.10 280.65 161.39 276.38 157.08 275.98
  Q 153.94 275.68 150.90 277.85"
/>
<path stroke="#f7edcb" vector-effect="non-scaling-stroke" d="
  M 192.92 374.48
  Q 192.27 375.25 192.13 376.26
  A 0.28 0.28 0.0 0 1 191.80 376.50
  Q 189.70 376.12 188.96 376.41"
/>
<path stroke="#f7edcb" vector-effect="non-scaling-stroke" d="
  M 190.99 380.15
  Q 190.28 380.25 189.95 380.71
  Q 189.69 381.08 189.26 380.94
  Q 188.42 380.68 187.89 380.95"
/>
<path stroke="#f7edcb" vector-effect="non-scaling-stroke" d="
  M 170.46 399.28
  Q 170.43 399.57 170.70 399.58"
/>
<path stroke="#f7edcb" vector-effect="non-scaling-stroke" d="
  M 120.56 400.68
  Q 120.36 399.27 119.33 399.36"
/>
<path stroke="#fbebb5" vector-effect="non-scaling-stroke" d="
  M 129.86 386.41
  Q 127.74 384.65 129.65 381.95
  C 130.02 381.43 130.43 380.43 130.36 379.63
  Q 130.16 377.25 130.92 375.07
  Q 131.09 374.56 131.51 374.23
  Q 132.88 373.13 133.02 371.86
  Q 133.37 368.79 133.42 365.39
  Q 133.43 365.04 133.51 364.68
  Q 133.65 364.06 132.94 363.53"
/>
<path stroke="#cbc4b2" vector-effect="non-scaling-stroke" d="
  M 148.70 272.34
  Q 149.25 275.30 150.90 277.85"
/>
<path stroke="#5e5d52" vector-effect="non-scaling-stroke" d="
  M 150.90 277.85
  L 147.09 280.88"
/>
<path stroke="#cbc4b2" vector-effect="non-scaling-stroke" d="
  M 147.09 280.88
  L 142.50 272.58"
/>
<path stroke="#cbc4b2" vector-effect="non-scaling-stroke" d="
  M 133.85 277.07
  Q 132.36 278.57 131.62 281.44
  Q 131.49 281.93 132.00 281.94
  L 146.01 281.97"
/>
<path stroke="#5e5d52" vector-effect="non-scaling-stroke" d="
  M 146.01 281.97
  Q 145.08 283.20 144.72 283.27"
/>
<path stroke="#c7bca1" vector-effect="non-scaling-stroke" d="
  M 144.72 283.27
  L 131.34 283.25
  Q 130.70 283.25 130.42 283.82
  Q 127.58 289.44 125.56 295.50
  C 124.37 299.10 125.33 302.20 129.16 302.26
  Q 130.53 302.29 131.91 302.51
  Q 132.16 302.55 132.13 302.79
  L 132.10 303.04
  A 0.44 0.43 -82.6 0 1 131.62 303.42
  Q 123.74 302.67 115.81 303.48
  Q 115.56 303.50 115.47 303.27
  L 115.33 302.94
  Q 115.15 302.50 115.62 302.47
  Q 120.78 302.10 122.84 297.31
  Q 125.69 290.71 128.48 283.90
  Q 129.41 281.63 130.79 279.53
  Q 130.97 279.26 130.85 278.97
  Q 130.76 278.75 130.49 278.46"
/>
<path stroke="#7f7a61" vector-effect="non-scaling-stroke" d="
  M 144.72 283.27
  C 136.96 293.95 132.46 304.97 129.09 318.00
  C 126.89 326.52 125.84 336.76 128.04 345.41
  Q 128.81 348.42 131.65 352.37
  Q 134.38 356.16 137.24 357.33"
/>
<path stroke="#f3e5bb" vector-effect="non-scaling-stroke" d="
  M 137.24 357.33
  Q 134.32 358.49 132.39 362.53
  Q 132.19 362.95 132.60 363.16
  Q 133.02 363.38 132.94 363.53"
/>
<path stroke="#f0deaa" vector-effect="non-scaling-stroke" d="
  M 132.94 363.53
  L 132.44 363.65
  Q 131.93 363.77 131.71 363.29
  L 131.46 362.72"
/>
<path stroke="#f0deaa" vector-effect="non-scaling-stroke" d="
  M 131.72 361.67
  Q 132.34 360.54 132.37 359.91
  A 2.95 2.95 0.0 0 0 130.16 356.91
  Q 129.03 356.63 127.18 357.60
  Q 126.75 357.82 126.27 357.72
  Q 124.50 357.32 123.63 359.15
  Q 123.07 360.32 123.75 364.22"
/>
<path stroke="#f0deaa" vector-effect="non-scaling-stroke" d="
  M 121.53 364.45
  Q 121.58 364.35 121.63 364.25"
/>
<path stroke="#ebe0c1" vector-effect="non-scaling-stroke" d="
  M 121.63 364.25
  Q 121.81 362.84 122.57 361.77
  Q 122.85 361.37 122.79 360.90
  L 122.64 359.77
  Q 122.59 359.37 122.87 359.08
  Q 124.67 357.16 125.65 355.01
  A 1.36 1.35 15.9 0 0 124.59 353.11
  Q 122.47 352.83 120.70 351.57
  C 119.03 350.37 116.82 350.33 114.88 349.87
  Q 114.48 349.78 114.18 349.50
  Q 110.20 345.89 105.20 347.81
  Q 104.84 347.95 104.75 348.31
  Q 104.65 348.71 105.00 349.25"
/>
<path stroke="#ebe0c1" vector-effect="non-scaling-stroke" d="
  M 107.92 352.59
  Q 108.87 353.06 109.13 355.28"
/>
<path stroke="#ebe0c1" vector-effect="non-scaling-stroke" d="
  M 96.47 352.61
  Q 98.72 351.43 98.55 348.73
  Q 98.52 348.21 98.06 347.97
  L 97.11 347.46"
/>
<path stroke="#ebe0c1" vector-effect="non-scaling-stroke" d="
  M 94.74 347.70
  Q 94.36 348.38 93.77 348.02
  A 0.14 0.13 17.4 0 1 93.71 347.91
  Q 93.70 347.75 93.81 347.64
  Q 94.17 347.27 93.76 346.96
  Q 91.81 345.45 93.03 343.12
  Q 93.58 342.05 94.73 341.62
  A 0.68 0.68 0.0 0 0 95.18 340.90
  Q 94.73 336.86 96.86 333.42
  Q 97.12 333.00 97.15 332.50
  Q 97.24 330.86 97.96 329.40
  Q 98.64 327.99 98.76 326.48
  Q 98.94 324.22 99.41 322.16
  Q 99.69 320.91 100.46 320.11
  Q 100.89 319.67 100.54 319.16
  L 100.34 318.88
  Q 100.04 318.44 100.11 317.90
  L 101.22 309.87
  Q 101.29 309.35 101.60 308.92
  Q 102.99 306.96 103.25 304.42
  A 0.41 0.41 0.0 0 0 102.62 304.04
  Q 102.10 304.39 101.96 303.64"
/>
<path stroke="#7f7a61" vector-effect="non-scaling-stroke" d="
  M 115.05 278.01
  L 117.89 277.99
  Q 118.43 277.99 118.44 277.45
  Q 118.47 275.87 117.06 274.75"
/>
<path stroke="#838272" vector-effect="non-scaling-stroke" d="
  M 147.09 280.88
  Q 146.86 281.72 146.01 281.97"
/>
<path stroke="#f0deaa" vector-effect="non-scaling-stroke" d="
  M 90.97 394.42
  L 90.26 394.73"
/>
<path stroke="#f4e6bb" vector-effect="non-scaling-stroke" d="
  M 121.63 364.25
  Q 120.59 365.75 118.46 365.40
  Q 117.23 365.20 116.71 364.42
  Q 115.93 363.27 115.68 362.01
  A 0.29 0.29 0.0 0 0 115.23 361.82
  L 114.39 362.38
  Q 114.07 362.58 114.11 362.96
  Q 114.21 363.87 113.80 365.28"
/>
<path stroke="#cbc4b2" vector-effect="non-scaling-stroke" d="
  M 85.35 292.37
  Q 84.23 294.53 86.66 297.33
  C 90.36 301.61 95.62 302.81 100.99 302.05
  C 112.32 300.44 112.82 288.31 112.12 279.15
  Q 112.09 278.77 111.42 278.10"
/>
<path stroke="#c7bca1" vector-effect="non-scaling-stroke" d="
  M 114.48 277.99
  Q 113.93 278.04 113.94 279.00
  Q 113.94 283.50 113.76 287.99
  Q 113.27 300.01 101.96 303.64"
/>
<path stroke="#cbc4b2" vector-effect="non-scaling-stroke" d="
  M 101.96 303.64
  Q 91.78 306.24 83.79 299.78
  Q 82.92 299.08 82.23 298.15
  Q 81.19 296.79 81.05 296.23
  Q 80.02 292.16 77.12 291.86"
/>
<path stroke="#5e5d52" vector-effect="non-scaling-stroke" d="
  M 77.12 291.86
  Q 77.83 291.47 77.68 290.44"
/>
<path stroke="#cbc4b2" vector-effect="non-scaling-stroke" d="
  M 93.61 350.96
  Q 93.11 350.16 92.03 349.47"
/>
<path stroke="#cbc4b2" vector-effect="non-scaling-stroke" d="
  M 67.94 328.48
  L 68.56 322.89"
/>
<path stroke="#838272" vector-effect="non-scaling-stroke" d="
  M 87.79 286.13
  Q 87.39 286.01 87.14 285.43"
/>
<path stroke="#838272" vector-effect="non-scaling-stroke" d="
  M 77.12 291.86
  Q 75.26 292.63 73.54 292.95
  Q 72.62 293.12 70.88 294.36"
/>
<path stroke="#f0deaa" vector-effect="non-scaling-stroke" d="
  M 88.36 370.77
  L 88.35 372.02
  Q 88.34 372.64 87.72 372.61
  Q 86.91 372.57 86.44 373.30
  Q 86.09 373.86 85.63 373.39
  Q 85.38 373.13 85.41 372.79"
/>
<path stroke="#cbc4b2" vector-effect="non-scaling-stroke" d="
  M 70.09 315.41
  Q 69.88 316.89 69.31 316.89"
/>
<path stroke="#5e5d52" vector-effect="non-scaling-stroke" d="
  M 233.88 278.26
  A 0.38 0.38 0.0 0 0 233.21 278.03
  L 230.62 281.12
  A 0.38 0.38 0.0 0 0 231.03 281.72
  L 233.68 280.84
  A 0.38 0.38 0.0 0 0 233.94 280.47
  L 233.88 278.26"
/>
<path stroke="#5e5d52" vector-effect="non-scaling-stroke" d="
  M 233.15 297.61
  L 231.06 302.93"
/>
<path stroke="#87805b" vector-effect="non-scaling-stroke" d="
  M 231.06 302.93
  C 227.82 308.46 225.12 314.74 221.00 319.62
  Q 219.33 321.60 218.95 323.45
  Q 218.47 325.82 218.52 328.29"
/>
<path stroke="#8a866c" vector-effect="non-scaling-stroke" d="
  M 218.52 328.29
  L 217.59 340.31"
/>
<path stroke="#8a866c" vector-effect="non-scaling-stroke" d="
  M 228.40 336.72
  L 240.54 323.45
  A 3.06 3.02 66.1 0 0 241.34 321.34
  L 241.18 312.01"
/>
<path stroke="#87805b" vector-effect="non-scaling-stroke" d="
  M 241.18 312.01
  Q 241.00 306.16 240.94 300.23
  C 240.93 299.40 240.62 298.67 240.16 298.00
  Q 239.84 297.54 240.10 297.05
  Q 241.23 294.88 241.34 292.37
  Q 241.57 287.23 242.33 282.25
  Q 242.38 281.93 242.06 281.98
  L 236.71 282.83
  Q 236.36 282.88 236.29 283.22
  L 233.15 297.61"
/>
<path stroke="#fbebb5" vector-effect="non-scaling-stroke" d="
  M 241.18 312.01
  Q 240.26 312.53 239.99 313.53
  Q 239.86 314.02 239.54 314.42
  C 237.43 317.02 235.15 318.03 232.70 319.86
  Q 230.49 321.50 228.14 322.80
  Q 224.07 325.05 220.79 328.07
  Q 220.38 328.45 219.89 328.17
  Q 218.94 327.63 218.52 328.29"
/>
<path stroke="#cfc29b" vector-effect="non-scaling-stroke" d="
  M 231.06 302.93
  L 239.72 303.38
  Q 240.19 303.41 240.08 302.94
  L 239.99 302.63
  A 0.44 0.44 0.0 0 0 239.52 302.30
  Q 236.42 302.69 234.71 301.42
  Q 234.17 301.01 234.13 300.33
  Q 234.04 298.64 233.15 297.61"
/>
<path stroke="#87805b" vector-effect="non-scaling-stroke" d="
  M 227.55 286.96
  Q 222.13 302.06 219.58 317.37
  Q 219.36 318.72 220.29 317.72
  Q 222.31 315.55 223.74 312.51
  Q 227.11 305.38 229.59 298.89"
/>
<path stroke="#5e5d52" vector-effect="non-scaling-stroke" d="
  M 229.59 298.89
  Q 233.05 291.60 233.44 284.08
  Q 233.48 283.34 232.76 283.54
  C 230.25 284.23 228.30 283.78 227.55 286.96"
/>
<path stroke="#cfc29b" vector-effect="non-scaling-stroke" d="
  M 229.59 298.89
  Q 228.46 293.00 228.48 287.30
  Q 228.48 286.65 227.55 286.96"
/>
<path stroke="#8a866c" vector-effect="non-scaling-stroke" d="
  M 205.15 322.55
  L 204.20 321.79
  A 0.28 0.28 0.0 0 0 203.80 321.83
  L 203.68 321.99
  A 11.52 0.88 -51.3 0 0 197.16 331.53
  L 197.18 331.54
  A 11.52 0.88 -51.3 0 0 205.07 323.10
  L 205.19 322.94
  A 0.28 0.28 0.0 0 0 205.15 322.55"
/>
<path stroke="#cfc29b" vector-effect="non-scaling-stroke" d="
  M 226.9411 302.7273
  A 1.68 0.39 -5.9 0 0 225.2299 302.5121
  A 1.68 0.39 -5.9 0 0 223.5989 303.0727
  A 1.68 0.39 -5.9 0 0 225.3101 303.2879
  A 1.68 0.39 -5.9 0 0 226.9411 302.7273"
/>
<path stroke="#f7edcb" vector-effect="non-scaling-stroke" d="
  M 168.89 357.77
  L 168.60 360.35
  Q 168.55 360.83 168.11 361.04
  Q 167.18 361.49 165.78 361.62"
/>
<path stroke="#f3e5bb" vector-effect="non-scaling-stroke" d="
  M 156.71 368.02
  L 156.70 368.52
  Q 156.70 368.98 156.26 369.14
  Q 155.94 369.26 155.52 369.26"
/>
<path stroke="#ebe0c1" vector-effect="non-scaling-stroke" d="
  M 110.24 350.96
  Q 110.13 350.84 109.99 350.77
  A 0.27 0.27 0.0 0 0 109.62 350.91
  Q 108.90 352.54 109.08 354.17
  Q 109.16 354.87 109.69 354.41
  Q 109.97 354.17 109.92 353.83
  Q 109.86 353.43 110.01 353.07
  Q 110.15 352.72 110.40 352.90
  A 0.41 0.41 0.0 0 0 111.04 352.68
  Q 111.31 351.71 110.52 351.18
  Q 110.37 351.09 110.24 350.96"
/>
</g>
<path fill="#fef1c5" d="
  M 315.94 274.25
  Q 314.81 274.11 314.12 272.67
  Q 310.45 265.05 306.92 257.86
  L 303.01 257.79
  Q 302.48 257.78 302.62 257.26
  Q 302.89 256.25 303.78 255.93
  Q 304.07 255.83 304.25 255.58
  C 305.03 254.54 306.07 254.07 306.86 253.07
  C 308.82 250.56 309.76 246.55 308.06 243.61
  Q 307.18 242.09 307.86 240.19
  C 308.32 238.89 309.29 238.47 309.94 237.38
  Q 310.60 236.28 311.56 235.47
  Q 313.80 233.56 314.97 231.05
  A 2.25 2.24 17.0 0 0 313.28 227.88
  Q 310.22 227.41 308.98 224.73
  Q 313.19 222.92 317.47 225.01
  Q 321.55 227.01 323.98 229.38
  A 0.88 0.88 0.0 0 0 324.88 229.57
  L 329.30 227.97
  A 1.18 1.18 0.0 0 1 330.76 228.56
  L 332.38 231.85
  A 1.90 1.90 0.0 0 1 331.96 234.09
  Q 330.07 235.81 329.40 238.24
  A 1.08 1.06 -59.5 0 0 329.66 239.28
  Q 330.19 239.84 330.40 240.54
  Q 330.64 241.37 329.80 241.16
  Q 329.66 241.12 329.50 241.10
  Q 328.88 241.00 328.55 241.53
  Q 327.95 242.50 328.66 243.67
  A 1.20 1.19 35.1 0 0 330.85 243.29
  L 331.07 242.20
  A 1.23 1.23 0.0 0 1 333.19 241.62
  Q 335.09 243.69 336.40 246.19
  Q 336.66 246.71 336.50 247.26
  Q 335.30 251.19 333.39 253.74
  Q 326.98 262.28 322.21 271.26
  Q 321.23 273.10 320.11 274.50
  Q 319.68 275.04 319.30 274.47
  Q 318.09 272.64 315.94 274.25
  Z
  M 327.7876 235.1208
  A 1.73 0.62 124.2 0 0 329.2728 234.0385
  A 1.73 0.62 124.2 0 0 329.7324 232.2592
  A 1.73 0.62 124.2 0 0 328.2472 233.3415
  A 1.73 0.62 124.2 0 0 327.7876 235.1208
  Z
  M 332.80 246.94
  Q 332.67 246.51 332.30 246.42
  A 0.56 0.56 0.0 0 0 331.60 246.93
  Q 331.47 248.91 330.89 250.85
  Q 330.87 250.93 330.91 250.99
  Q 330.99 251.13 331.13 251.17
  Q 331.38 251.22 331.49 250.99
  Q 332.15 249.50 332.96 248.13
  Q 333.22 247.69 332.92 247.21
  Q 332.84 247.08 332.80 246.94
  Z"
/>
<path fill="#f4d472" d="
  M 238.42 231.30
  Q 238.91 232.50 238.58 233.61
  Q 238.44 234.10 238.02 234.41
  Q 233.59 237.67 228.42 240.25
  A 1.38 1.37 -28.0 0 1 226.62 239.70
  L 224.94 236.77
  Q 224.73 236.39 224.37 236.15
  Q 223.50 235.56 224.02 234.53
  Q 226.92 228.93 230.27 226.19
  Q 231.88 224.87 234.04 224.00
  A 1.34 1.34 0.0 0 1 235.87 225.05
  C 236.16 227.07 238.20 228.06 238.72 230.21
  Q 238.80 230.52 238.60 230.76
  Q 238.52 230.86 238.45 230.97
  Q 238.35 231.12 238.42 231.30
  Z"
/>
<path fill="#f4d472" d="
  M 308.98 224.73
  Q 310.22 227.41 313.28 227.88
  A 2.25 2.24 17.0 0 1 314.97 231.05
  Q 313.80 233.56 311.56 235.47
  Q 310.60 236.28 309.94 237.38
  C 309.29 238.47 308.32 238.89 307.86 240.19
  Q 307.18 242.09 308.06 243.61
  C 309.76 246.55 308.82 250.56 306.86 253.07
  C 306.07 254.07 305.03 254.54 304.25 255.58
  Q 304.07 255.83 303.78 255.93
  Q 302.89 256.25 302.62 257.26
  Q 302.48 257.78 303.01 257.79
  L 306.92 257.86
  L 284.65 257.89
  Q 284.25 257.89 284.28 258.28
  Q 284.28 258.42 284.41 258.50
  Q 284.64 258.63 284.91 258.66
  Q 290.77 259.11 290.39 265.60
  Q 287.24 269.42 284.57 272.82
  Q 284.01 273.53 282.75 274.25
  Q 282.01 274.67 282.02 275.65
  L 261.44 276.66
  Q 261.75 274.26 261.61 271.95
  Q 261.46 269.48 261.43 267.28
  C 261.39 264.16 260.71 259.26 264.78 258.34
  Q 265.47 258.19 266.43 257.89
  Q 284.91 242.51 292.11 236.10
  Q 296.26 232.41 299.82 229.68
  Q 301.54 228.36 304.33 227.13
  Q 306.83 226.02 308.98 224.73
  Z"
/>
<path fill="#f4d472" d="
  M 244.22 245.50
  A 0.40 0.40 0.0 0 0 243.63 245.17
  Q 241.67 246.22 240.23 247.58
  Q 239.55 248.22 238.71 247.01
  A 1.61 1.60 -50.9 0 1 238.55 245.46
  C 240.65 240.65 245.01 237.86 249.36 235.28
  C 250.23 234.76 251.68 234.92 252.23 234.16
  Q 252.57 233.70 253.10 233.52
  Q 257.00 232.24 260.93 231.48
  Q 262.72 231.12 264.70 231.44
  Q 265.36 231.54 265.22 232.19
  Q 264.98 233.39 265.88 234.11
  A 0.60 0.59 37.6 0 1 265.99 234.93
  Q 265.82 235.15 265.86 235.40
  Q 265.93 235.83 266.35 235.92
  L 267.48 236.16
  A 1.23 1.22 13.4 0 1 268.41 237.66
  Q 267.55 241.01 266.02 244.41
  A 1.71 1.71 0.0 0 1 265.42 245.12
  Q 259.40 249.15 252.76 251.96
  Q 251.95 252.30 251.29 252.91
  Q 250.78 253.37 250.10 253.33
  L 245.00 253.01
  Q 244.02 252.95 244.81 252.37
  Q 245.87 251.59 246.30 250.15
  Q 246.46 249.62 245.92 249.47
  Q 244.95 249.21 244.09 249.81
  Q 243.60 250.14 243.54 249.55
  C 243.45 248.60 243.32 247.49 243.90 246.65
  Q 244.25 246.14 244.22 245.50
  Z"
/>
<path fill="#f4d472" d="
  M 184.30 271.39
  L 176.17 261.39
  Q 175.90 261.05 175.90 260.61
  Q 175.90 260.26 175.71 260.14
  Q 176.73 260.00 176.57 258.48
  Q 176.52 258.02 176.75 257.60
  Q 177.87 255.57 179.63 254.37
  Q 180.14 254.03 180.42 253.48
  Q 181.93 250.48 184.92 249.55
  C 187.06 248.89 188.58 247.40 190.07 245.80
  A 1.56 1.54 -64.3 0 1 191.44 245.31
  Q 193.10 245.55 194.14 246.53
  A 1.22 1.20 -66.9 0 1 194.52 247.50
  Q 194.19 252.22 193.46 255.57
  Q 192.63 259.43 189.96 264.01
  Q 189.33 265.10 187.04 267.56
  Q 185.61 269.10 184.30 271.39
  Z"
/>
<path fill="#fef1c5" d="
  M 221.27 258.04
  Q 216.75 258.28 212.45 256.37
  A 0.99 0.98 41.5 0 0 211.56 256.42
  Q 207.70 258.71 203.03 257.61
  Q 202.20 257.43 202.25 256.95
  Q 206.08 252.66 213.03 248.11
  C 214.09 247.42 215.28 246.41 216.53 247.37
  C 218.87 249.16 218.62 251.53 220.37 253.64
  C 221.46 254.96 221.36 256.37 221.27 258.04
  Z"
/>
<path fill="#a69f92" d="
  M 266.43 257.89
  Q 265.47 258.19 264.78 258.34
  C 260.71 259.26 261.39 264.16 261.43 267.28
  Q 261.46 269.48 261.61 271.95
  Q 261.75 274.26 261.44 276.66
  L 256.85 277.12
  L 256.58 266.66
  Q 258.05 263.09 255.99 259.32
  Q 255.73 258.83 255.17 258.76
  L 252.82 258.45
  Q 251.76 258.31 251.62 259.37
  L 251.00 263.98
  Q 250.23 264.88 249.53 264.32
  Q 249.84 264.00 248.28 262.75
  Q 248.12 260.71 246.24 259.92
  C 243.18 258.64 232.75 256.64 233.90 263.26
  Q 233.98 263.71 234.49 263.61
  Q 234.20 263.78 234.01 264.00
  Q 233.83 264.20 233.82 264.56
  Q 233.66 269.68 234.24 274.63
  Q 231.65 274.73 229.14 277.98
  L 228.76 266.69
  Q 230.02 263.11 228.15 260.06
  Q 227.89 259.62 227.42 259.44
  Q 222.85 257.70 218.54 259.37
  C 214.54 260.74 212.95 264.36 211.76 268.00
  Q 211.48 268.84 211.18 268.01
  C 210.37 265.73 211.44 262.18 211.34 259.90
  Q 211.26 257.94 209.53 258.86
  L 209.02 259.13
  Q 207.15 260.12 206.96 262.23
  Q 206.25 269.88 206.73 278.01
  Q 206.76 278.56 207.80 278.03
  Q 207.07 279.20 206.30 280.25
  Q 205.45 281.42 206.47 283.39
  L 206.65 300.96
  L 206.52 303.97
  Q 206.46 305.46 205.50 304.32
  L 185.03 279.95
  L 172.53 264.16
  A 0.69 0.66 64.8 0 0 171.87 263.91
  Q 171.30 264.03 171.28 264.42
  Q 171.17 268.17 171.23 272.37
  Q 171.24 272.76 171.44 273.09
  Q 171.67 273.47 171.98 273.69
  Q 171.25 273.91 171.23 274.50
  Q 171.02 283.28 171.52 292.03
  C 171.26 294.72 170.89 301.63 174.81 302.19
  Q 175.74 302.32 176.65 302.48
  Q 176.88 302.52 176.88 302.75
  L 176.88 303.04
  A 0.52 0.51 2.1 0 1 176.32 303.55
  C 171.00 303.10 165.92 303.64 160.56 303.17
  Q 156.08 302.78 150.53 303.61
  Q 150.38 303.63 150.36 303.48
  L 150.30 303.09
  Q 150.28 302.89 150.47 302.84
  L 154.83 301.77
  A 1.06 1.06 0.0 0 0 155.64 300.68
  C 155.52 298.53 154.36 297.18 153.53 295.33
  Q 151.10 289.91 148.33 284.32
  L 151.88 280.80
  L 158.87 294.96
  Q 158.62 295.94 157.72 296.53
  Q 157.25 296.83 157.23 296.27
  L 157.12 293.26
  A 0.67 0.67 0.0 0 0 156.55 292.62
  L 156.21 292.57
  A 0.46 0.46 0.0 0 0 155.68 293.04
  L 155.84 297.63
  Q 155.87 298.33 156.57 298.42
  Q 158.33 298.62 159.63 297.01
  Q 161.65 300.80 164.06 301.95
  C 165.94 302.84 168.49 301.55 168.95 299.39
  Q 169.31 297.72 169.36 296.13
  Q 169.77 283.91 169.38 272.12
  L 169.42 262.04
  Q 169.42 261.46 169.09 260.98
  Q 167.55 258.77 164.42 258.49
  Q 164.14 258.46 164.15 258.19
  L 164.17 257.92
  Q 164.17 257.90 164.37 257.90
  L 173.14 257.95
  Q 173.65 257.96 173.99 258.32
  L 175.71 260.14
  Q 175.90 260.26 175.90 260.61
  Q 175.90 261.05 176.17 261.39
  L 184.30 271.39
  Q 185.46 273.41 187.43 274.74
  Q 192.31 281.56 198.20 287.98
  Q 198.54 288.35 198.85 288.41
  Q 199.30 288.50 199.66 288.21
  Q 199.52 288.76 199.89 289.11
  Q 200.23 289.43 201.10 289.40
  Q 200.37 289.44 200.27 290.06
  Q 200.18 290.60 200.51 291.05
  Q 202.31 293.44 204.13 295.66
  Q 204.64 296.27 204.73 295.48
  Q 205.22 291.14 204.27 287.06
  Q 205.21 284.97 205.08 282.71
  Q 205.28 269.17 204.92 265.00
  Q 204.60 261.18 202.03 258.64
  A 0.59 0.59 0.0 0 1 202.20 257.69
  Q 202.45 257.59 203.03 257.61
  Q 207.70 258.71 211.56 256.42
  A 0.99 0.98 41.5 0 1 212.45 256.37
  Q 216.75 258.28 221.27 258.04
  Q 236.26 258.58 248.37 257.67
  Q 249.87 257.55 251.07 256.41
  Q 251.84 255.67 251.67 256.72
  Q 251.63 256.98 251.70 257.22
  Q 251.83 257.75 252.38 257.75
  L 266.43 257.89
  Z"
/>
<path fill="#f4d472" d="
  M 202.25 256.95
  Q 202.20 257.43 203.03 257.61
  Q 202.45 257.59 202.20 257.69
  A 0.59 0.59 0.0 0 0 202.03 258.64
  Q 204.60 261.18 204.92 265.00
  Q 205.28 269.17 205.08 282.71
  Q 203.65 283.96 203.08 285.52
  Q 202.93 285.96 202.56 286.25
  Q 201.96 286.73 201.14 286.88
  A 1.44 1.42 13.4 0 0 200.28 287.40
  L 199.66 288.21
  Q 199.30 288.50 198.85 288.41
  Q 198.54 288.35 198.20 287.98
  Q 192.31 281.56 187.43 274.74
  L 202.25 256.95
  Z"
/>
<path fill="#a69f92" d="
  M 70.09 315.41
  Q 69.88 316.89 69.31 316.89
  C 60.54 316.53 53.98 311.48 48.81 304.84
  A 1.04 1.04 0.0 0 0 47.97 304.44
  Q 42.00 304.50 36.44 301.70
  Q 27.49 297.21 25.06 287.65
  Q 23.24 280.46 24.93 273.74
  Q 26.54 267.33 32.13 263.06
  Q 42.36 255.27 55.17 257.77
  Q 61.70 259.04 66.33 264.33
  Q 74.96 274.17 71.82 286.57
  Q 71.21 288.96 69.63 291.19
  C 68.23 293.18 67.22 295.34 65.38 296.99
  Q 61.13 300.80 54.68 302.87
  A 0.53 0.52 -24.0 0 0 54.38 303.63
  Q 59.84 313.17 70.09 315.41
  Z
  M 52.94 302.51
  Q 62.87 300.85 66.03 290.26
  C 68.55 281.84 67.42 271.02 60.90 264.44
  Q 53.82 257.29 43.98 258.42
  C 38.07 259.11 33.13 262.44 30.89 268.22
  Q 28.35 274.77 28.80 279.71
  Q 29.38 285.93 31.84 291.48
  C 35.52 299.78 44.07 303.98 52.94 302.51
  Z"
/>
<path fill="#a69f92" d="
  M 148.70 272.34
  Q 149.25 275.30 150.90 277.85
  L 147.09 280.88
  L 142.50 272.58
  L 139.40 265.02
  A 0.57 0.57 0.0 0 0 138.38 264.95
  Q 135.26 270.22 133.85 277.07
  Q 132.36 278.57 131.62 281.44
  Q 131.49 281.93 132.00 281.94
  L 146.01 281.97
  Q 145.08 283.20 144.72 283.27
  L 131.34 283.25
  Q 130.70 283.25 130.42 283.82
  Q 127.58 289.44 125.56 295.50
  C 124.37 299.10 125.33 302.20 129.16 302.26
  Q 130.53 302.29 131.91 302.51
  Q 132.16 302.55 132.13 302.79
  L 132.10 303.04
  A 0.44 0.43 -82.6 0 1 131.62 303.42
  Q 123.74 302.67 115.81 303.48
  Q 115.56 303.50 115.47 303.27
  L 115.33 302.94
  Q 115.15 302.50 115.62 302.47
  Q 120.78 302.10 122.84 297.31
  Q 125.69 290.71 128.48 283.90
  Q 129.41 281.63 130.79 279.53
  Q 130.97 279.26 130.85 278.97
  Q 130.76 278.75 130.49 278.46
  Q 130.78 277.87 130.82 276.94
  Q 130.85 276.40 131.26 276.05
  Q 131.79 275.59 131.64 274.96
  A 0.56 0.55 67.0 0 1 131.87 274.38
  Q 131.98 274.31 132.11 274.25
  Q 132.20 274.22 132.25 274.14
  Q 134.28 270.82 135.58 267.47
  C 136.89 264.09 138.64 261.06 139.85 257.61
  A 0.54 0.53 -49.3 0 1 140.82 257.53
  L 148.70 272.34
  Z"
/>
<path fill="#a69f92" d="
  M 85.35 292.37
  Q 84.23 294.53 86.66 297.33
  C 90.36 301.61 95.62 302.81 100.99 302.05
  C 112.32 300.44 112.82 288.31 112.12 279.15
  Q 112.09 278.77 111.42 278.10
  Q 111.85 277.48 111.88 276.75
  Q 112.18 269.09 111.99 264.73
  Q 111.74 259.02 106.46 258.33
  Q 106.14 258.29 106.18 257.97
  L 106.21 257.72
  Q 106.21 257.68 106.25 257.68
  Q 112.65 258.38 119.04 257.79
  Q 119.37 257.76 119.38 258.09
  L 119.39 258.36
  A 0.05 0.05 0.0 0 1 119.33 258.42
  C 115.66 258.22 113.94 261.91 113.94 264.98
  Q 113.93 270.29 114.11 276.50
  Q 114.14 277.28 114.48 277.99
  Q 113.93 278.04 113.94 279.00
  Q 113.94 283.50 113.76 287.99
  Q 113.27 300.01 101.96 303.64
  Q 91.78 306.24 83.79 299.78
  Q 82.92 299.08 82.23 298.15
  Q 81.19 296.79 81.05 296.23
  Q 80.02 292.16 77.12 291.86
  Q 77.83 291.47 77.68 290.44
  Q 78.10 286.78 78.12 285.49
  Q 78.24 274.27 78.44 262.98
  Q 78.54 257.53 73.12 258.44
  Q 72.88 258.48 72.86 258.23
  L 72.84 257.97
  Q 72.84 257.89 72.92 257.90
  Q 81.02 258.42 89.34 257.67
  Q 89.54 257.65 89.57 257.85
  L 89.60 258.12
  Q 89.65 258.47 89.30 258.47
  C 86.10 258.53 83.29 258.40 83.27 262.73
  Q 83.20 274.05 83.94 290.25
  Q 84.04 292.50 85.35 292.37
  Z"
/>
<path fill="#a69f92" d="
  M 306.92 257.86
  Q 310.45 265.05 314.12 272.67
  Q 314.81 274.11 315.94 274.25
  Q 315.81 275.77 316.15 276.54
  Q 320.06 285.52 324.45 294.37
  Q 325.50 296.49 326.23 294.24
  Q 326.86 292.28 327.63 290.61
  Q 330.75 283.84 333.92 276.32
  C 336.36 270.53 339.27 265.15 341.44 259.34
  A 2.19 2.19 0.0 0 1 343.65 257.93
  Q 347.22 258.19 351.14 257.94
  Q 351.37 257.93 351.36 258.15
  L 351.36 258.15
  Q 351.35 258.34 351.16 258.33
  C 346.31 257.99 345.15 260.94 345.37 265.05
  Q 346.42 284.94 347.01 298.87
  Q 347.18 303.06 350.83 302.85
  Q 350.95 302.84 350.87 302.84
  Q 343.82 302.91 337.31 303.31
  Q 337.08 303.32 337.06 303.10
  L 337.03 302.79
  Q 337.03 302.75 337.07 302.75
  Q 338.60 302.58 340.08 302.33
  A 2.53 2.52 -4.6 0 0 342.20 299.85
  Q 342.23 293.79 341.85 287.54
  Q 341.25 277.44 341.23 266.84
  Q 341.23 265.90 340.49 265.38
  Q 340.03 265.06 339.87 265.59
  Q 339.09 268.22 337.89 270.77
  Q 336.75 273.19 335.70 275.73
  Q 332.68 283.04 329.76 289.37
  Q 328.84 291.35 327.95 293.36
  Q 326.08 297.59 324.22 301.75
  Q 323.57 303.22 322.84 301.78
  L 311.72 279.93
  L 305.85 266.39
  Q 304.84 264.06 304.78 266.60
  L 304.37 285.72
  Q 303.36 293.77 303.87 297.63
  Q 304.48 302.27 309.73 302.55
  Q 310.19 302.58 310.16 303.04
  L 310.14 303.33
  Q 310.13 303.49 309.97 303.47
  Q 303.14 302.83 297.96 303.41
  C 292.94 303.97 291.45 309.00 287.93 311.85
  C 283.54 315.40 279.35 319.43 274.18 321.97
  Q 272.67 322.72 273.88 321.54
  C 276.94 318.55 279.71 315.73 283.28 313.19
  Q 289.30 308.91 291.91 306.15
  Q 295.20 302.66 297.62 300.95
  Q 298.14 300.58 297.95 301.19
  Q 297.88 301.42 297.72 301.59
  Q 297.28 302.07 297.93 302.06
  C 303.71 302.03 302.72 293.00 301.75 289.25
  Q 302.13 289.31 302.33 289.20
  Q 302.51 289.10 302.51 288.74
  Q 302.69 275.56 302.89 262.39
  Q 302.92 260.66 301.07 259.66
  Q 298.72 258.29 295.72 259.07
  C 291.92 260.06 291.79 265.95 292.19 269.20
  Q 291.99 277.85 291.97 286.50
  C 291.96 290.91 290.98 296.22 287.74 299.23
  Q 285.67 301.15 283.04 302.48
  C 274.95 306.56 265.77 304.21 259.77 297.66
  Q 257.44 294.00 257.02 290.00
  Q 256.55 285.46 257.04 279.95
  L 261.92 279.48
  Q 260.20 289.13 265.05 297.23
  Q 265.32 297.67 265.77 297.90
  Q 266.33 298.19 266.70 298.71
  Q 268.00 300.54 270.09 301.20
  C 275.88 303.02 281.64 303.01 286.31 298.99
  Q 288.73 296.91 289.56 294.15
  Q 290.52 290.95 290.57 288.00
  Q 290.77 277.01 290.39 265.60
  Q 290.77 259.11 284.91 258.66
  Q 284.64 258.63 284.41 258.50
  Q 284.28 258.42 284.28 258.28
  Q 284.25 257.89 284.65 257.89
  L 306.92 257.86
  Z"
/>
<path fill="#f4d472" d="
  M 218.54 259.37
  Q 216.94 262.48 215.21 265.00
  C 214.35 266.26 214.34 267.87 213.16 269.36
  Q 211.99 270.85 211.13 272.53
  Q 210.55 273.67 209.36 275.16
  Q 208.33 276.45 207.80 278.03
  Q 206.76 278.56 206.73 278.01
  Q 206.25 269.88 206.96 262.23
  Q 207.15 260.12 209.02 259.13
  L 209.53 258.86
  Q 211.26 257.94 211.34 259.90
  C 211.44 262.18 210.37 265.73 211.18 268.01
  Q 211.48 268.84 211.76 268.00
  C 212.95 264.36 214.54 260.74 218.54 259.37
  Z"
/>
<path fill="#f8e4a4" d="
  M 301.07 259.66
  Q 300.90 259.92 300.54 259.90
  A 0.23 0.23 0.0 0 0 300.31 260.21
  Q 300.40 260.44 300.40 260.68
  A 1.04 1.02 67.1 0 1 300.14 261.34
  Q 298.32 263.31 296.63 265.54
  C 295.44 267.11 293.86 268.18 292.19 269.20
  C 291.79 265.95 291.92 260.06 295.72 259.07
  Q 298.72 258.29 301.07 259.66
  Z"
/>
<path fill="#fef1c5" d="
  M 301.07 259.66
  Q 302.92 260.66 302.89 262.39
  Q 302.69 275.56 302.51 288.74
  Q 302.51 289.10 302.33 289.20
  Q 302.13 289.31 301.75 289.25
  Q 301.14 289.10 300.86 289.36
  Q 297.83 292.08 294.69 295.61
  Q 294.35 295.99 294.60 296.43
  Q 294.85 296.88 294.53 297.29
  Q 292.72 299.68 291.18 302.41
  C 289.48 305.43 285.37 306.69 282.84 309.11
  C 281.31 310.58 279.00 310.62 277.07 311.56
  Q 266.84 316.56 257.20 321.32
  Q 252.14 323.81 247.24 325.77
  Q 246.02 326.27 243.74 325.27
  Q 243.04 323.79 244.52 322.39
  Q 244.89 322.05 245.00 321.55
  Q 245.24 320.45 244.22 320.06
  Q 243.69 319.85 243.70 319.29
  L 243.71 311.21
  Q 248.82 308.03 252.58 303.64
  Q 254.17 301.78 256.02 300.50
  Q 257.95 299.16 259.77 297.66
  C 265.77 304.21 274.95 306.56 283.04 302.48
  Q 285.67 301.15 287.74 299.23
  C 290.98 296.22 291.96 290.91 291.97 286.50
  Q 291.99 277.85 292.19 269.20
  C 293.86 268.18 295.44 267.11 296.63 265.54
  Q 298.32 263.31 300.14 261.34
  A 1.04 1.02 67.1 0 0 300.40 260.68
  Q 300.40 260.44 300.31 260.21
  A 0.23 0.23 0.0 0 1 300.54 259.90
  Q 300.90 259.92 301.07 259.66
  Z
  M 288.35 300.99
  Q 288.79 300.63 288.24 300.76
  Q 284.45 301.68 282.89 305.83
  Q 282.64 306.48 283.24 306.13
  Q 284.26 305.53 284.89 304.67
  Q 286.40 302.62 288.35 300.99
  Z"
/>
<path fill="#f4d472" d="
  M 248.28 262.75
  Q 249.84 264.00 249.53 264.32
  Q 244.13 270.44 243.15 278.84
  A 0.36 0.36 0.0 0 1 242.86 279.15
  L 236.58 280.32
  A 0.19 0.19 0.0 0 1 236.36 280.11
  Q 236.91 276.16 234.24 274.63
  Q 233.66 269.68 233.82 264.56
  Q 233.83 264.20 234.01 264.00
  Q 234.20 263.78 234.49 263.61
  C 236.97 262.55 239.20 260.69 242.00 262.06
  Q 242.44 262.27 242.93 262.31
  L 248.28 262.75
  Z"
/>
<path fill="#161b12" d="
  M 251.00 263.98
  L 251.46 268.47
  L 249.71 277.67
  Q 249.61 278.20 250.15 278.12
  L 256.85 277.12
  L 261.44 276.66
  L 282.02 275.65
  C 283.05 276.04 284.38 276.44 284.69 277.59
  Q 284.92 278.45 284.19 279.02
  Q 283.78 279.34 283.31 279.13
  Q 280.71 278.00 276.50 278.29
  Q 269.25 278.78 261.92 279.48
  L 257.04 279.95
  L 249.25 280.60
  A 0.87 0.87 0.0 0 0 248.48 281.24
  Q 247.21 285.75 245.48 290.32
  Q 244.24 293.63 244.02 298.09
  Q 243.71 304.64 243.71 311.21
  L 243.70 319.29
  Q 243.69 319.85 244.22 320.06
  Q 245.24 320.45 245.00 321.55
  Q 244.89 322.05 244.52 322.39
  Q 243.04 323.79 243.74 325.27
  Q 243.28 347.99 246.51 370.25
  Q 246.61 370.98 246.20 371.50
  A 0.83 0.83 0.0 0 1 244.85 371.41
  Q 244.05 370.07 243.79 368.42
  C 243.05 363.68 242.30 358.63 242.24 353.75
  Q 242.08 340.93 241.40 327.36
  Q 241.35 326.41 240.61 327.01
  Q 239.87 327.62 239.56 328.48
  A 2.24 2.13 80.8 0 1 238.91 329.43
  Q 235.59 332.23 233.18 335.13
  Q 230.56 338.30 227.58 340.97
  Q 224.53 343.71 221.64 346.73
  Q 220.61 347.81 219.25 348.43
  C 217.40 349.27 216.89 351.70 218.43 353.08
  Q 225.57 359.46 222.63 368.08
  Q 222.01 369.90 220.33 370.57
  A 1.88 1.88 0.0 0 1 217.92 369.63
  Q 214.87 363.17 214.90 355.88
  Q 214.90 354.50 214.44 353.75
  C 213.56 352.32 211.04 353.14 209.76 353.63
  Q 209.22 353.83 208.86 353.38
  L 207.70 351.91
  Q 210.54 350.29 213.13 349.90
  A 1.57 1.56 -4.8 0 0 214.47 348.32
  Q 214.27 339.73 215.14 330.37
  Q 215.22 329.54 214.56 330.06
  C 210.93 332.99 204.24 337.55 203.81 328.39
  Q 203.76 327.47 203.28 328.25
  C 201.46 331.16 198.80 334.71 195.29 335.32
  Q 193.72 335.58 193.30 334.05
  C 191.93 328.98 199.18 321.92 202.61 319.82
  C 204.14 318.88 206.44 319.54 206.29 321.68
  Q 205.99 326.09 206.36 329.99
  Q 206.63 332.90 209.04 331.24
  L 213.18 328.39
  Q 215.53 326.77 215.77 323.92
  Q 216.71 312.85 219.92 300.02
  L 224.56 286.23
  Q 224.82 285.46 224.03 285.64
  L 220.74 286.40
  Q 220.03 286.56 220.54 287.08
  Q 220.91 287.46 220.76 287.97
  Q 220.60 288.48 220.08 288.59
  C 218.14 289.00 213.67 289.77 211.82 288.92
  A 0.56 0.56 0.0 0 1 211.75 287.94
  C 216.12 285.13 220.82 284.25 225.74 282.79
  A 1.57 1.56 -82.4 0 0 226.66 282.08
  L 229.14 277.98
  Q 231.65 274.73 234.24 274.63
  Q 236.91 276.16 236.36 280.11
  A 0.19 0.19 0.0 0 0 236.58 280.32
  L 242.86 279.15
  A 0.36 0.36 0.0 0 0 243.15 278.84
  Q 244.13 270.44 249.53 264.32
  Q 250.23 264.88 251.00 263.98
  Z
  M 233.88 278.26
  A 0.38 0.38 0.0 0 0 233.21 278.03
  L 230.62 281.12
  A 0.38 0.38 0.0 0 0 231.03 281.72
  L 233.68 280.84
  A 0.38 0.38 0.0 0 0 233.94 280.47
  L 233.88 278.26
  Z
  M 233.15 297.61
  L 231.06 302.93
  C 227.82 308.46 225.12 314.74 221.00 319.62
  Q 219.33 321.60 218.95 323.45
  Q 218.47 325.82 218.52 328.29
  L 217.59 340.31
  L 217.32 346.03
  A 0.47 0.47 0.0 0 0 218.06 346.44
  Q 223.75 342.41 228.40 336.72
  L 240.54 323.45
  A 3.06 3.02 66.1 0 0 241.34 321.34
  L 241.18 312.01
  Q 241.00 306.16 240.94 300.23
  C 240.93 299.40 240.62 298.67 240.16 298.00
  Q 239.84 297.54 240.10 297.05
  Q 241.23 294.88 241.34 292.37
  Q 241.57 287.23 242.33 282.25
  Q 242.38 281.93 242.06 281.98
  L 236.71 282.83
  Q 236.36 282.88 236.29 283.22
  L 233.15 297.61
  Z
  M 227.55 286.96
  Q 222.13 302.06 219.58 317.37
  Q 219.36 318.72 220.29 317.72
  Q 222.31 315.55 223.74 312.51
  Q 227.11 305.38 229.59 298.89
  Q 233.05 291.60 233.44 284.08
  Q 233.48 283.34 232.76 283.54
  C 230.25 284.23 228.30 283.78 227.55 286.96
  Z
  M 205.15 322.55
  L 204.20 321.79
  A 0.28 0.28 0.0 0 0 203.80 321.83
  L 203.68 321.99
  A 11.52 0.88 -51.3 0 0 197.16 331.53
  L 197.18 331.54
  A 11.52 0.88 -51.3 0 0 205.07 323.10
  L 205.19 322.94
  A 0.28 0.28 0.0 0 0 205.15 322.55
  Z
  M 217.39 357.10
  L 219.17 367.22
  A 0.04 0.04 0.0 0 0 219.22 367.26
  L 219.26 367.25
  A 5.00 2.82 80.0 0 0 221.17 361.84
  L 221.11 361.48
  A 5.00 2.82 80.0 0 0 217.46 357.05
  L 217.42 357.05
  A 0.04 0.04 0.0 0 0 217.39 357.10
  Z"
/>
<path fill="#fef1c5" d="
  M 311.72 279.93
  L 304.37 285.72
  L 304.78 266.60
  Q 304.84 264.06 305.85 266.39
  L 311.72 279.93
  Z"
/>
<path fill="#f8e4a4" d="
  M 290.39 265.60
  Q 290.77 277.01 290.57 288.00
  Q 290.52 290.95 289.56 294.15
  Q 288.73 296.91 286.31 298.99
  C 281.64 303.01 275.88 303.02 270.09 301.20
  Q 268.00 300.54 266.70 298.71
  Q 266.33 298.19 265.77 297.90
  Q 265.32 297.67 265.05 297.23
  Q 260.20 289.13 261.92 279.48
  Q 269.25 278.78 276.50 278.29
  Q 280.71 278.00 283.31 279.13
  Q 283.78 279.34 284.19 279.02
  Q 284.92 278.45 284.69 277.59
  C 284.38 276.44 283.05 276.04 282.02 275.65
  Q 282.01 274.67 282.75 274.25
  Q 284.01 273.53 284.57 272.82
  Q 287.24 269.42 290.39 265.60
  Z
  M 284.7488 281.3315
  A 12.34 1.21 -42.7 0 0 274.8594 288.8108
  A 12.34 1.21 -42.7 0 0 266.6112 298.0685
  A 12.34 1.21 -42.7 0 0 276.5006 290.5892
  A 12.34 1.21 -42.7 0 0 284.7488 281.3315
  Z"
/>
<path fill="#161b12" d="
  M 166.34 267.75
  L 166.78 266.55
  Q 166.85 266.33 167.06 266.42
  L 167.34 266.54
  A 0.18 0.18 0.0 0 1 167.42 266.82
  Q 166.91 267.47 166.84 268.29
  Q 166.80 268.75 166.36 268.92
  Q 165.91 269.09 165.43 268.98
  Q 165.00 268.88 165.28 268.54
  Q 165.46 268.31 165.74 268.26
  Q 166.18 268.17 166.34 267.75
  Z"
/>
<path fill="#f4d472" d="
  M 228.76 266.69
  L 229.14 277.98
  L 226.66 282.08
  A 1.57 1.56 -82.4 0 1 225.74 282.79
  C 220.82 284.25 216.12 285.13 211.75 287.94
  A 0.56 0.56 0.0 0 0 211.82 288.92
  C 213.67 289.77 218.14 289.00 220.08 288.59
  Q 220.60 288.48 220.76 287.97
  Q 220.91 287.46 220.54 287.08
  Q 220.03 286.56 220.74 286.40
  L 224.03 285.64
  Q 224.82 285.46 224.56 286.23
  L 219.92 300.02
  L 216.72 300.66
  Q 216.22 300.76 215.77 300.53
  Q 214.86 300.05 214.58 299.39
  L 208.27 297.62
  Q 207.12 297.29 206.83 298.45
  Q 206.51 299.78 206.65 300.96
  L 206.47 283.39
  Q 208.68 284.90 210.18 283.21
  Q 212.14 280.99 214.15 281.15
  A 0.79 0.76 -67.8 0 0 214.81 280.86
  Q 216.28 278.97 217.32 276.95
  Q 217.55 276.52 217.98 276.31
  Q 218.76 275.95 219.10 275.17
  C 219.67 273.90 220.91 273.50 221.90 272.59
  Q 225.14 269.58 228.76 266.69
  Z"
/>
<path fill="#f8e4a4" d="
  M 256.58 266.66
  L 256.85 277.12
  L 250.15 278.12
  Q 249.61 278.20 249.71 277.67
  L 251.46 268.47
  Q 252.72 269.81 256.58 266.66
  Z"
/>
<path fill="#efe8d1" d="
  M 169.38 272.12
  Q 169.77 283.91 169.36 296.13
  Q 169.31 297.72 168.95 299.39
  C 168.49 301.55 165.94 302.84 164.06 301.95
  Q 161.65 300.80 159.63 297.01
  C 162.57 292.43 164.16 289.41 164.12 284.67
  C 164.10 280.65 161.39 276.38 157.08 275.98
  Q 153.94 275.68 150.90 277.85
  Q 149.25 275.30 148.70 272.34
  Q 152.54 270.39 156.99 269.51
  C 158.09 269.30 158.86 269.27 159.97 269.73
  Q 163.87 271.34 169.38 272.12
  Z"
/>
<path fill="#efe8d1" d="
  M 142.50 272.58
  L 147.09 280.88
  Q 146.86 281.72 146.01 281.97
  L 132.00 281.94
  Q 131.49 281.93 131.62 281.44
  Q 132.36 278.57 133.85 277.07
  Q 138.52 273.58 142.50 272.58
  Z"
/>
<path fill="#e7d8b0" d="
  M 130.49 278.46
  Q 130.76 278.75 130.85 278.97
  Q 130.97 279.26 130.79 279.53
  Q 129.41 281.63 128.48 283.90
  Q 125.69 290.71 122.84 297.31
  Q 120.78 302.10 115.62 302.47
  Q 115.15 302.50 115.33 302.94
  L 115.47 303.27
  Q 115.56 303.50 115.81 303.48
  Q 123.74 302.67 131.62 303.42
  A 0.44 0.43 -82.6 0 0 132.10 303.04
  L 132.13 302.79
  Q 132.16 302.55 131.91 302.51
  Q 130.53 302.29 129.16 302.26
  C 125.33 302.20 124.37 299.10 125.56 295.50
  Q 127.58 289.44 130.42 283.82
  Q 130.70 283.25 131.34 283.25
  L 144.72 283.27
  C 136.96 293.95 132.46 304.97 129.09 318.00
  C 126.89 326.52 125.84 336.76 128.04 345.41
  Q 128.81 348.42 131.65 352.37
  Q 134.38 356.16 137.24 357.33
  Q 134.32 358.49 132.39 362.53
  Q 132.19 362.95 132.60 363.16
  Q 133.02 363.38 132.94 363.53
  L 132.44 363.65
  Q 131.93 363.77 131.71 363.29
  L 131.46 362.72
  Q 132.27 362.18 131.72 361.67
  Q 132.34 360.54 132.37 359.91
  A 2.95 2.95 0.0 0 0 130.16 356.91
  Q 129.03 356.63 127.18 357.60
  Q 126.75 357.82 126.27 357.72
  Q 124.50 357.32 123.63 359.15
  Q 123.07 360.32 123.75 364.22
  Q 122.65 364.08 121.53 364.45
  Q 121.58 364.35 121.63 364.25
  Q 121.81 362.84 122.57 361.77
  Q 122.85 361.37 122.79 360.90
  L 122.64 359.77
  Q 122.59 359.37 122.87 359.08
  Q 124.67 357.16 125.65 355.01
  A 1.36 1.35 15.9 0 0 124.59 353.11
  Q 122.47 352.83 120.70 351.57
  C 119.03 350.37 116.82 350.33 114.88 349.87
  Q 114.48 349.78 114.18 349.50
  Q 110.20 345.89 105.20 347.81
  Q 104.84 347.95 104.75 348.31
  Q 104.65 348.71 105.00 349.25
  Q 104.71 349.12 104.52 349.13
  Q 103.99 349.17 104.26 349.63
  Q 105.34 351.42 107.92 352.59
  Q 108.87 353.06 109.13 355.28
  Q 107.29 357.08 106.26 359.52
  Q 106.04 360.02 105.52 360.17
  Q 105.22 360.26 105.01 360.49
  Q 104.75 360.78 105.10 360.96
  Q 105.24 361.03 105.40 361.04
  Q 105.65 361.06 105.69 361.31
  Q 105.72 361.49 105.60 361.60
  Q 105.51 361.69 105.39 361.70
  Q 104.42 361.80 103.37 361.52
  A 0.91 0.91 0.0 0 0 102.37 362.88
  Q 103.18 364.15 104.64 364.93
  A 0.92 0.92 0.0 0 0 105.99 364.15
  Q 106.00 363.68 106.24 363.27
  Q 106.46 362.89 106.81 363.17
  L 107.72 363.91
  Q 108.00 364.14 107.80 364.44
  Q 106.69 366.13 107.17 368.16
  Q 107.29 368.68 106.79 368.87
  Q 105.96 369.17 105.24 369.71
  A 1.94 1.94 0.0 0 1 102.27 368.87
  Q 101.24 366.24 98.86 365.17
  A 0.36 0.36 0.0 0 0 98.37 365.62
  Q 98.86 367.03 99.15 368.50
  Q 99.31 369.32 98.90 369.92
  A 0.71 0.71 0.0 0 1 97.65 369.76
  Q 97.26 368.68 97.40 367.59
  Q 97.46 367.11 97.09 366.80
  Q 96.91 366.64 96.67 366.72
  A 0.05 0.05 0.0 0 1 96.61 366.66
  Q 97.78 364.05 99.41 361.64
  Q 99.99 360.78 99.83 359.74
  Q 99.21 355.63 96.47 352.61
  Q 98.72 351.43 98.55 348.73
  Q 98.52 348.21 98.06 347.97
  L 97.11 347.46
  Q 95.94 346.00 94.74 347.70
  Q 94.36 348.38 93.77 348.02
  A 0.14 0.13 17.4 0 1 93.71 347.91
  Q 93.70 347.75 93.81 347.64
  Q 94.17 347.27 93.76 346.96
  Q 91.81 345.45 93.03 343.12
  Q 93.58 342.05 94.73 341.62
  A 0.68 0.68 0.0 0 0 95.18 340.90
  Q 94.73 336.86 96.86 333.42
  Q 97.12 333.00 97.15 332.50
  Q 97.24 330.86 97.96 329.40
  Q 98.64 327.99 98.76 326.48
  Q 98.94 324.22 99.41 322.16
  Q 99.69 320.91 100.46 320.11
  Q 100.89 319.67 100.54 319.16
  L 100.34 318.88
  Q 100.04 318.44 100.11 317.90
  L 101.22 309.87
  Q 101.29 309.35 101.60 308.92
  Q 102.99 306.96 103.25 304.42
  A 0.41 0.41 0.0 0 0 102.62 304.04
  Q 102.10 304.39 101.96 303.64
  Q 113.27 300.01 113.76 287.99
  Q 113.94 283.50 113.94 279.00
  Q 113.93 278.04 114.48 277.99
  Q 115.01 278.36 115.05 278.01
  L 117.89 277.99
  Q 118.43 277.99 118.44 277.45
  Q 118.47 275.87 117.06 274.75
  Q 116.88 274.23 116.90 273.76
  Q 116.93 273.05 117.53 273.43
  Q 118.23 273.88 119.09 274.01
  Q 119.64 274.09 119.65 274.64
  Q 119.66 275.50 120.36 276.05
  A 1.21 1.20 -69.1 0 1 120.81 277.07
  L 120.72 278.57
  Q 120.69 279.12 121.21 279.33
  Q 123.12 280.08 124.76 279.65
  Q 128.35 278.69 130.49 278.46
  Z"
/>
<path fill="#fef1c5" d="
  M 171.98 273.69
  Q 178.78 277.31 183.62 283.29
  A 0.48 0.47 30.6 0 0 184.46 283.08
  L 185.03 279.95
  L 205.50 304.32
  Q 206.46 305.46 206.52 303.97
  L 206.65 300.96
  Q 206.51 299.78 206.83 298.45
  Q 207.12 297.29 208.27 297.62
  L 214.58 299.39
  Q 209.55 301.54 207.51 305.31
  A 0.86 0.86 0.0 0 1 206.93 305.74
  L 203.56 306.44
  A 2.10 2.06 16.0 0 0 202.53 307.00
  Q 201.19 308.32 199.61 307.88
  Q 199.13 307.75 198.88 308.19
  Q 198.03 309.70 196.32 308.96
  A 0.82 0.81 3.3 0 1 195.85 308.44
  Q 195.19 306.19 195.56 304.23
  Q 195.65 303.75 195.48 303.29
  Q 194.36 300.30 193.11 297.04
  Q 192.62 295.76 192.28 294.39
  Q 191.68 291.96 189.32 291.17
  A 2.35 2.35 0.0 0 0 186.22 293.31
  Q 186.19 294.27 185.80 295.22
  Q 185.46 296.08 185.28 297.07
  Q 184.33 302.41 179.17 302.19
  Q 178.64 302.17 178.28 301.77
  Q 177.75 301.19 177.60 300.41
  Q 177.52 299.97 177.25 299.61
  Q 175.20 296.87 172.44 295.03
  A 1.08 1.05 -79.5 0 1 171.99 294.36
  L 171.52 292.03
  Q 171.02 283.28 171.23 274.50
  Q 171.25 273.91 171.98 273.69
  Z"
/>
<path fill="#161b12" d="
  M 117.06 274.75
  Q 118.47 275.87 118.44 277.45
  Q 118.43 277.99 117.89 277.99
  L 115.05 278.01
  Q 116.07 276.87 116.10 275.25
  Q 116.10 274.73 117.06 274.75
  Z"
/>
<path fill="#161b12" d="
  M 159.63 297.01
  Q 158.33 298.62 156.57 298.42
  Q 155.87 298.33 155.84 297.63
  L 155.68 293.04
  A 0.46 0.46 0.0 0 1 156.21 292.57
  L 156.55 292.62
  A 0.67 0.67 0.0 0 1 157.12 293.26
  L 157.23 296.27
  Q 157.25 296.83 157.72 296.53
  Q 158.62 295.94 158.87 294.96
  Q 163.01 288.55 160.99 282.49
  Q 158.91 276.28 151.88 280.80
  L 148.33 284.32
  C 146.07 287.14 143.95 289.69 142.25 292.77
  Q 131.37 312.44 130.34 334.51
  Q 130.03 341.28 131.92 346.98
  C 134.80 355.71 144.20 357.93 152.18 354.84
  Q 157.85 352.65 162.94 348.13
  C 165.60 345.77 167.46 342.88 170.63 341.16
  A 1.14 1.14 0.0 0 0 171.21 340.28
  Q 172.24 329.18 173.39 317.19
  Q 173.62 314.74 174.51 312.69
  Q 175.04 311.48 176.34 311.70
  Q 176.72 311.76 177.03 311.97
  Q 177.82 312.48 177.37 313.32
  Q 176.06 315.74 175.76 318.31
  Q 175.05 324.22 174.84 330.27
  Q 174.80 331.40 175.52 330.52
  C 176.63 329.16 177.44 327.77 178.87 326.57
  C 183.40 322.76 187.35 318.19 192.92 316.00
  Q 194.20 315.50 195.48 316.17
  Q 196.04 316.46 195.99 317.22
  A 0.86 0.85 -13.4 0 1 195.57 317.90
  Q 190.89 320.59 185.69 325.44
  Q 179.41 331.30 175.60 337.26
  L 174.46 347.24
  A 1.68 1.67 -5.7 0 1 173.30 348.65
  Q 171.30 349.28 170.67 346.80
  Q 170.43 345.85 170.62 344.84
  Q 170.84 343.73 170.05 344.55
  Q 164.58 350.28 158.23 354.95
  Q 149.30 361.52 137.24 357.33
  Q 134.38 356.16 131.65 352.37
  Q 128.81 348.42 128.04 345.41
  C 125.84 336.76 126.89 326.52 129.09 318.00
  C 132.46 304.97 136.96 293.95 144.72 283.27
  Q 145.08 283.20 146.01 281.97
  Q 146.86 281.72 147.09 280.88
  L 150.90 277.85
  Q 153.94 275.68 157.08 275.98
  C 161.39 276.38 164.10 280.65 164.12 284.67
  C 164.16 289.41 162.57 292.43 159.63 297.01
  Z"
/>
<path fill="#efe8d1" d="
  M 111.42 278.10
  Q 112.09 278.77 112.12 279.15
  C 112.82 288.31 112.32 300.44 100.99 302.05
  C 95.62 302.81 90.36 301.61 86.66 297.33
  Q 84.23 294.53 85.35 292.37
  C 89.86 291.52 90.18 288.40 91.95 285.20
  Q 92.35 284.48 91.72 285.01
  L 90.69 285.87
  Q 90.30 286.19 89.80 286.18
  L 87.79 286.13
  Q 87.39 286.01 87.14 285.43
  Q 88.74 284.07 88.94 282.10
  Q 89.00 281.61 89.44 281.37
  Q 91.94 280.03 94.77 280.18
  Q 95.26 280.21 95.59 279.84
  Q 96.45 278.85 97.84 278.72
  Q 103.38 278.24 108.28 276.53
  Q 108.76 276.36 109.22 276.57
  Q 110.45 277.14 111.42 278.10
  Z"
/>
<path fill="#a69f92" d="
  M 233.88 278.26
  L 233.94 280.47
  A 0.38 0.38 0.0 0 1 233.68 280.84
  L 231.03 281.72
  A 0.38 0.38 0.0 0 1 230.62 281.12
  L 233.21 278.03
  A 0.38 0.38 0.0 0 1 233.88 278.26
  Z"
/>
<path fill="#efe8d1" d="
  M 158.87 294.96
  L 151.88 280.80
  Q 158.91 276.28 160.99 282.49
  Q 163.01 288.55 158.87 294.96
  Z"
/>
<path fill="#f4d472" d="
  M 257.04 279.95
  Q 256.55 285.46 257.02 290.00
  Q 257.44 294.00 259.77 297.66
  Q 257.95 299.16 256.02 300.50
  Q 254.17 301.78 252.58 303.64
  Q 248.82 308.03 243.71 311.21
  Q 243.71 304.64 244.02 298.09
  Q 244.24 293.63 245.48 290.32
  Q 247.21 285.75 248.48 281.24
  A 0.87 0.87 0.0 0 1 249.25 280.60
  L 257.04 279.95
  Z"
/>
<path fill="#f8e4a4" d="
  M 241.18 312.01
  Q 240.26 312.53 239.99 313.53
  Q 239.86 314.02 239.54 314.42
  C 237.43 317.02 235.15 318.03 232.70 319.86
  Q 230.49 321.50 228.14 322.80
  Q 224.07 325.05 220.79 328.07
  Q 220.38 328.45 219.89 328.17
  Q 218.94 327.63 218.52 328.29
  Q 218.47 325.82 218.95 323.45
  Q 219.33 321.60 221.00 319.62
  C 225.12 314.74 227.82 308.46 231.06 302.93
  L 239.72 303.38
  Q 240.19 303.41 240.08 302.94
  L 239.99 302.63
  A 0.44 0.44 0.0 0 0 239.52 302.30
  Q 236.42 302.69 234.71 301.42
  Q 234.17 301.01 234.13 300.33
  Q 234.04 298.64 233.15 297.61
  L 236.29 283.22
  Q 236.36 282.88 236.71 282.83
  L 242.06 281.98
  Q 242.38 281.93 242.33 282.25
  Q 241.57 287.23 241.34 292.37
  Q 241.23 294.88 240.10 297.05
  Q 239.84 297.54 240.16 298.00
  C 240.62 298.67 240.93 299.40 240.94 300.23
  Q 241.00 306.16 241.18 312.01
  Z"
/>
<path fill="#a69f92" d="
  M 229.59 298.89
  Q 228.46 293.00 228.48 287.30
  Q 228.48 286.65 227.55 286.96
  C 228.30 283.78 230.25 284.23 232.76 283.54
  Q 233.48 283.34 233.44 284.08
  Q 233.05 291.60 229.59 298.89
  Z"
/>
<path fill="#f8e4a4" d="
  M 148.33 284.32
  Q 151.10 289.91 153.53 295.33
  C 154.36 297.18 155.52 298.53 155.64 300.68
  A 1.06 1.06 0.0 0 1 154.83 301.77
  L 150.47 302.84
  Q 150.28 302.89 150.30 303.09
  L 150.36 303.48
  Q 150.38 303.63 150.53 303.61
  Q 156.08 302.78 160.56 303.17
  C 165.92 303.64 171.00 303.10 176.32 303.55
  A 0.52 0.51 2.1 0 0 176.88 303.04
  L 176.88 302.75
  Q 176.88 302.52 176.65 302.48
  Q 175.74 302.32 174.81 302.19
  C 170.89 301.63 171.26 294.72 171.52 292.03
  L 171.99 294.36
  A 1.08 1.05 -79.5 0 0 172.44 295.03
  Q 175.20 296.87 177.25 299.61
  Q 177.52 299.97 177.60 300.41
  Q 177.75 301.19 178.28 301.77
  Q 178.64 302.17 179.17 302.19
  Q 184.33 302.41 185.28 297.07
  Q 185.46 296.08 185.80 295.22
  Q 186.19 294.27 186.22 293.31
  A 2.35 2.35 0.0 0 1 189.32 291.17
  Q 191.68 291.96 192.28 294.39
  Q 192.62 295.76 193.11 297.04
  Q 194.36 300.30 195.48 303.29
  Q 195.65 303.75 195.56 304.23
  Q 195.19 306.19 195.85 308.44
  A 0.82 0.81 3.3 0 0 196.32 308.96
  Q 198.03 309.70 198.88 308.19
  Q 199.13 307.75 199.61 307.88
  Q 201.19 308.32 202.53 307.00
  A 2.10 2.06 16.0 0 1 203.56 306.44
  L 206.93 305.74
  A 0.86 0.86 0.0 0 0 207.51 305.31
  Q 209.55 301.54 214.58 299.39
  Q 214.86 300.05 215.77 300.53
  Q 216.22 300.76 216.72 300.66
  L 219.92 300.02
  Q 216.71 312.85 215.77 323.92
  Q 215.53 326.77 213.18 328.39
  L 209.04 331.24
  Q 206.63 332.90 206.36 329.99
  Q 205.99 326.09 206.29 321.68
  C 206.44 319.54 204.14 318.88 202.61 319.82
  C 199.18 321.92 191.93 328.98 193.30 334.05
  Q 193.72 335.58 195.29 335.32
  C 198.80 334.71 201.46 331.16 203.28 328.25
  Q 203.76 327.47 203.81 328.39
  C 204.24 337.55 210.93 332.99 214.56 330.06
  Q 215.22 329.54 215.14 330.37
  Q 214.27 339.73 214.47 348.32
  A 1.57 1.56 -4.8 0 1 213.13 349.90
  Q 210.54 350.29 207.70 351.91
  Q 206.63 352.88 208.41 354.66
  A 1.60 1.59 -73.0 0 1 208.85 355.50
  Q 209.11 356.86 210.03 357.87
  A 2.76 2.74 -70.3 0 1 210.71 359.32
  Q 211.11 362.17 212.46 364.20
  Q 212.94 364.93 212.16 365.32
  Q 204.23 369.24 196.49 371.28
  Q 195.41 371.57 193.70 374.07
  L 194.92 371.69
  Q 195.14 371.25 194.79 370.91
  Q 193.42 369.61 194.77 368.15
  A 0.63 0.62 32.3 0 0 194.54 367.15
  Q 194.20 367.02 193.43 367.20
  Q 194.98 365.91 197.13 366.95
  Q 197.41 367.09 197.64 366.89
  L 202.52 362.76
  Q 202.96 362.39 203.52 362.51
  L 204.70 362.75
  Q 205.55 362.92 205.64 362.05
  L 205.83 360.04
  A 0.56 0.55 4.5 0 0 205.31 359.44
  Q 203.92 359.34 202.75 359.68
  Q 197.24 361.26 193.32 364.03
  L 192.40 358.54
  Q 192.32 358.04 192.62 357.63
  Q 193.30 356.71 194.21 356.02
  C 196.92 353.96 193.98 351.54 195.82 349.01
  C 196.75 347.73 196.98 346.46 197.01 344.92
  Q 197.02 344.39 197.35 343.97
  L 198.57 342.38
  A 1.17 1.17 0.0 0 0 197.89 340.52
  Q 194.86 339.85 191.82 340.96
  C 190.72 341.36 190.36 342.39 189.96 343.38
  A 1.80 1.79 -60.1 0 1 187.19 344.13
  Q 185.83 343.07 184.60 343.61
  Q 184.12 343.82 184.15 344.34
  Q 184.42 348.85 181.77 352.46
  Q 181.43 352.93 181.05 352.49
  Q 179.66 350.87 179.35 349.01
  Q 179.05 347.21 178.42 345.47
  Q 177.39 342.64 177.91 339.11
  Q 177.98 338.60 177.60 338.25
  Q 177.01 337.69 175.60 337.26
  Q 179.41 331.30 185.69 325.44
  Q 190.89 320.59 195.57 317.90
  A 0.86 0.85 -13.4 0 0 195.99 317.22
  Q 196.04 316.46 195.48 316.17
  Q 194.20 315.50 192.92 316.00
  C 187.35 318.19 183.40 322.76 178.87 326.57
  C 177.44 327.77 176.63 329.16 175.52 330.52
  Q 174.80 331.40 174.84 330.27
  Q 175.05 324.22 175.76 318.31
  Q 176.06 315.74 177.37 313.32
  Q 177.82 312.48 177.03 311.97
  Q 176.72 311.76 176.34 311.70
  Q 175.04 311.48 174.51 312.69
  Q 173.62 314.74 173.39 317.19
  Q 172.24 329.18 171.21 340.28
  A 1.14 1.14 0.0 0 1 170.63 341.16
  C 167.46 342.88 165.60 345.77 162.94 348.13
  Q 157.85 352.65 152.18 354.84
  C 144.20 357.93 134.80 355.71 131.92 346.98
  Q 130.03 341.28 130.34 334.51
  Q 131.37 312.44 142.25 292.77
  C 143.95 289.69 146.07 287.14 148.33 284.32
  Z
  M 210.05 343.08
  L 209.91 345.26
  Q 209.85 346.06 209.11 345.78
  Q 208.64 345.60 208.18 345.30
  Q 207.59 344.91 207.68 345.61
  Q 207.76 346.20 208.14 346.69
  Q 208.55 347.21 208.27 347.80
  Q 207.99 348.41 208.24 349.02
  Q 208.61 349.94 209.55 349.83
  Q 210.47 349.73 210.71 348.82
  Q 210.92 348.02 210.71 347.21
  Q 210.56 346.62 211.06 346.26
  L 212.17 345.47
  A 0.90 0.89 -26.0 0 0 212.51 344.50
  Q 211.73 341.63 208.44 340.82
  Q 207.19 340.52 207.03 341.84
  Q 206.82 343.50 208.29 342.69
  Q 209.07 342.27 209.68 342.50
  Q 210.08 342.65 210.05 343.08
  Z
  M 201.95 352.33
  Q 203.58 351.94 204.14 350.02
  Q 204.30 349.45 203.94 348.98
  L 203.54 348.47
  Q 203.21 348.05 202.99 348.54
  Q 202.12 350.56 200.21 350.86
  Q 199.65 350.95 199.39 351.45
  Q 199.12 351.96 199.22 352.52
  Q 199.31 353.04 199.83 352.98
  Q 200.59 352.89 201.30 352.56
  Q 201.62 352.41 201.95 352.33
  Z
  M 194.47 368.82
  L 194.93 369.98
  A 0.24 0.24 0.0 0 0 195.24 370.11
  L 198.08 369.00
  A 5.97 0.75 -21.4 0 0 203.36 366.12
  L 203.28 365.92
  A 5.97 0.75 -21.4 0 0 197.45 367.40
  L 194.61 368.51
  A 0.24 0.24 0.0 0 0 194.47 368.82
  Z"
/>
<path fill="#161b12" d="
  M 87.14 285.43
  Q 87.39 286.01 87.79 286.13
  Q 87.14 286.23 86.59 285.97
  Q 86.25 285.81 86.36 285.45
  Q 86.40 285.31 86.52 285.21
  Q 86.75 285.03 86.95 285.23
  L 87.14 285.43
  Z"
/>
<path fill="#f8e4a4" d="
  M 227.55 286.96
  Q 228.48 286.65 228.48 287.30
  Q 228.46 293.00 229.59 298.89
  Q 227.11 305.38 223.74 312.51
  Q 222.31 315.55 220.29 317.72
  Q 219.36 318.72 219.58 317.37
  Q 222.13 302.06 227.55 286.96
  Z
  M 226.9411 302.7273
  A 1.68 0.39 -5.9 0 0 225.2299 302.5121
  A 1.68 0.39 -5.9 0 0 223.5989 303.0727
  A 1.68 0.39 -5.9 0 0 225.3101 303.2879
  A 1.68 0.39 -5.9 0 0 226.9411 302.7273
  Z"
/>
<path fill="#fef1c5" d="
  M 204.27 287.06
  Q 205.22 291.14 204.73 295.48
  Q 204.64 296.27 204.13 295.66
  Q 202.31 293.44 200.51 291.05
  Q 200.18 290.60 200.27 290.06
  Q 200.37 289.44 201.10 289.40
  Q 201.61 287.63 204.27 287.06
  Z"
/>
<path fill="#161b12" d="
  M 77.68 290.44
  Q 77.83 291.47 77.12 291.86
  Q 75.26 292.63 73.54 292.95
  Q 72.62 293.12 70.88 294.36
  L 72.39 291.39
  A 1.17 1.17 0.0 0 1 73.77 290.80
  Q 76.70 291.67 77.68 290.44
  Z"
/>
<path fill="#efe8d1" d="
  M 77.12 291.86
  Q 80.02 292.16 81.05 296.23
  Q 81.19 296.79 82.23 298.15
  Q 82.92 299.08 83.79 299.78
  Q 91.78 306.24 101.96 303.64
  Q 102.10 304.39 102.62 304.04
  A 0.41 0.41 0.0 0 1 103.25 304.42
  Q 102.99 306.96 101.60 308.92
  Q 101.29 309.35 101.22 309.87
  L 100.11 317.90
  Q 100.04 318.44 100.34 318.88
  L 100.54 319.16
  Q 100.89 319.67 100.46 320.11
  Q 99.69 320.91 99.41 322.16
  Q 98.94 324.22 98.76 326.48
  Q 98.64 327.99 97.96 329.40
  Q 97.24 330.86 97.15 332.50
  Q 97.12 333.00 96.86 333.42
  Q 94.73 336.86 95.18 340.90
  A 0.68 0.68 0.0 0 1 94.73 341.62
  Q 93.58 342.05 93.03 343.12
  Q 91.81 345.45 93.76 346.96
  Q 94.17 347.27 93.81 347.64
  Q 93.70 347.75 93.71 347.91
  A 0.14 0.13 17.4 0 0 93.77 348.02
  Q 94.36 348.38 94.74 347.70
  Q 96.01 348.79 97.11 347.46
  L 98.06 347.97
  Q 98.52 348.21 98.55 348.73
  Q 98.72 351.43 96.47 352.61
  Q 95.11 351.26 93.61 350.96
  Q 93.11 350.16 92.03 349.47
  Q 91.05 348.49 89.78 347.86
  Q 89.56 347.75 89.37 347.91
  Q 88.79 348.37 89.40 348.78
  Q 89.88 349.11 90.11 349.66
  Q 90.41 350.41 89.62 350.23
  L 84.88 349.17
  A 0.47 0.47 0.0 0 0 84.42 349.33
  C 83.02 351.16 85.09 352.70 86.20 353.94
  Q 86.60 354.39 86.45 354.97
  C 85.71 357.74 84.31 359.19 85.81 362.50
  Q 84.39 362.30 83.74 362.72
  Q 79.60 365.41 75.20 367.58
  Q 75.01 367.68 74.84 367.53
  L 74.60 367.31
  A 0.42 0.42 0.0 0 1 74.70 366.61
  L 79.57 364.43
  A 0.54 0.54 0.0 0 0 79.65 363.49
  Q 76.47 361.27 73.72 358.68
  C 73.12 358.12 72.45 358.01 71.69 357.79
  Q 71.13 357.64 71.37 357.11
  L 71.83 356.12
  Q 72.10 355.53 72.73 355.68
  L 77.07 356.67
  Q 77.62 356.80 78.13 356.54
  Q 79.02 356.09 79.95 356.03
  Q 80.57 355.98 80.33 356.55
  Q 79.49 358.55 80.09 360.30
  Q 80.24 360.75 80.71 360.82
  Q 81.31 360.91 81.37 360.31
  Q 81.78 356.45 83.55 353.23
  Q 83.80 352.76 83.54 352.30
  Q 83.28 351.84 82.69 351.78
  A 1.05 1.04 -3.8 0 1 81.77 350.98
  Q 81.36 349.19 80.14 347.87
  Q 79.74 347.43 79.28 347.82
  Q 76.51 350.16 77.12 353.77
  Q 77.34 355.05 76.07 354.72
  Q 74.27 354.25 72.42 354.62
  A 0.56 0.56 0.0 0 1 71.75 354.07
  L 71.75 353.68
  A 1.19 1.19 0.0 0 1 72.66 352.54
  L 74.33 352.12
  Q 75.03 351.95 74.62 351.36
  Q 73.00 349.00 70.06 350.36
  A 1.15 1.15 0.0 0 1 68.59 349.89
  Q 67.98 348.83 68.71 347.95
  A 1.33 1.32 -66.3 0 1 69.91 347.48
  Q 70.71 347.58 71.43 347.29
  A 0.63 0.63 0.0 0 0 71.47 346.15
  Q 69.57 345.19 68.43 343.70
  Q 66.50 341.17 69.50 342.23
  Q 72.93 343.44 75.92 341.29
  Q 76.41 340.94 75.85 340.72
  L 71.03 338.87
  A 0.88 0.88 0.0 0 1 70.46 338.03
  Q 70.48 337.29 70.77 336.61
  Q 71.04 335.99 70.61 335.47
  Q 69.34 333.93 69.47 331.92
  Q 69.50 331.37 69.24 330.88
  L 67.94 328.48
  L 68.56 322.89
  Q 68.69 321.44 69.79 321.93
  Q 71.01 322.47 72.01 321.58
  Q 73.57 320.18 75.63 319.49
  Q 77.11 319.00 75.73 318.29
  Q 72.75 316.76 69.31 316.89
  Q 69.88 316.89 70.09 315.41
  Q 71.98 314.98 73.06 314.07
  Q 73.57 313.64 73.09 313.19
  L 68.87 309.18
  Q 68.53 308.86 68.53 308.40
  Q 68.52 306.25 69.88 304.28
  Q 70.14 303.92 70.44 304.24
  Q 70.70 304.51 71.07 304.34
  Q 71.40 304.20 71.16 303.94
  Q 70.93 303.69 70.67 303.75
  Q 70.06 303.90 69.98 303.27
  Q 69.36 297.86 70.88 294.36
  Q 72.62 293.12 73.54 292.95
  Q 75.26 292.63 77.12 291.86
  Z
  M 81.54 344.10
  L 77.94 344.86
  A 0.18 0.18 0.0 0 0 77.80 345.07
  L 77.82 345.15
  A 1.61 1.44 -12.0 0 0 79.70 346.23
  L 80.50 346.06
  A 1.61 1.44 -12.0 0 0 81.77 344.31
  L 81.76 344.23
  A 0.18 0.18 0.0 0 0 81.54 344.10
  Z
  M 76.5975 344.7267
  A 1.12 0.51 -11.5 0 0 75.3983 344.4502
  A 1.12 0.51 -11.5 0 0 74.4025 345.1733
  A 1.12 0.51 -11.5 0 0 75.6017 345.4498
  A 1.12 0.51 -11.5 0 0 76.5975 344.7267
  Z"
/>
<path fill="#a69f92" d="
  M 233.15 297.61
  Q 234.04 298.64 234.13 300.33
  Q 234.17 301.01 234.71 301.42
  Q 236.42 302.69 239.52 302.30
  A 0.44 0.44 0.0 0 1 239.99 302.63
  L 240.08 302.94
  Q 240.19 303.41 239.72 303.38
  L 231.06 302.93
  L 233.15 297.61
  Z"
/>
<ellipse fill="#a69f92" cx="0.00" cy="0.00" transform="translate(225.27,302.90) rotate(-5.9)" rx="1.68" ry="0.39"/>
<path fill="#fef1c5" d="
  M 241.18 312.01
  L 241.34 321.34
  A 3.06 3.02 66.1 0 1 240.54 323.45
  L 228.40 336.72
  Q 223.00 339.29 217.59 340.31
  L 218.52 328.29
  Q 218.94 327.63 219.89 328.17
  Q 220.38 328.45 220.79 328.07
  Q 224.07 325.05 228.14 322.80
  Q 230.49 321.50 232.70 319.86
  C 235.15 318.03 237.43 317.02 239.54 314.42
  Q 239.86 314.02 239.99 313.53
  Q 240.26 312.53 241.18 312.01
  Z"
/>
<path fill="#fef1c5" d="
  M 205.15 322.55
  A 0.28 0.28 0.0 0 1 205.19 322.94
  L 205.07 323.10
  A 11.52 0.88 -51.3 0 1 197.18 331.54
  L 197.16 331.53
  A 11.52 0.88 -51.3 0 1 203.68 321.99
  L 203.80 321.83
  A 0.28 0.28 0.0 0 1 204.20 321.79
  L 205.15 322.55
  Z"
/>
<path fill="#a69f92" d="
  M 68.56 322.89
  L 67.94 328.48
  L 67.69 326.55
  Q 67.63 326.05 67.17 325.85
  Q 65.94 325.31 65.05 324.37
  Q 64.53 323.82 65.28 323.91
  Q 68.22 324.26 68.56 322.89
  Z"
/>
<path fill="#fef1c5" d="
  M 175.60 337.26
  Q 177.01 337.69 177.60 338.25
  Q 177.98 338.60 177.91 339.11
  Q 177.39 342.64 178.42 345.47
  Q 179.05 347.21 179.35 349.01
  Q 179.66 350.87 181.05 352.49
  Q 181.43 352.93 181.77 352.46
  Q 184.42 348.85 184.15 344.34
  Q 184.12 343.82 184.60 343.61
  Q 185.83 343.07 187.19 344.13
  A 1.80 1.79 -60.1 0 0 189.96 343.38
  C 190.36 342.39 190.72 341.36 191.82 340.96
  Q 194.86 339.85 197.89 340.52
  A 1.17 1.17 0.0 0 1 198.57 342.38
  L 197.35 343.97
  Q 197.02 344.39 197.01 344.92
  C 196.98 346.46 196.75 347.73 195.82 349.01
  C 193.98 351.54 196.92 353.96 194.21 356.02
  Q 193.30 356.71 192.62 357.63
  Q 192.32 358.04 192.40 358.54
  L 193.32 364.03
  C 190.72 365.51 187.11 366.71 187.86 370.61
  A 0.68 0.65 -74.4 0 0 188.04 370.95
  Q 188.34 371.24 188.67 371.21
  Q 189.15 371.16 189.21 370.68
  Q 189.43 368.87 190.50 367.46
  A 1.32 1.32 0.0 0 1 191.31 366.97
  Q 192.40 366.77 193.43 367.20
  Q 194.20 367.02 194.54 367.15
  A 0.63 0.62 32.3 0 1 194.77 368.15
  Q 193.42 369.61 194.79 370.91
  Q 195.14 371.25 194.92 371.69
  L 193.70 374.07
  L 192.92 374.48
  Q 192.27 375.25 192.13 376.26
  A 0.28 0.28 0.0 0 1 191.80 376.50
  Q 189.70 376.12 188.96 376.41
  Q 188.62 376.47 188.52 376.57
  Q 188.40 376.69 188.68 376.84
  Q 190.60 377.85 190.99 380.15
  Q 190.28 380.25 189.95 380.71
  Q 189.69 381.08 189.26 380.94
  Q 188.42 380.68 187.89 380.95
  L 187.25 380.42
  Q 186.84 380.08 186.34 380.28
  Q 184.32 381.08 183.16 382.71
  Q 182.87 383.11 182.41 383.30
  Q 176.99 385.54 171.77 388.69
  Q 171.34 388.95 171.05 389.34
  Q 170.61 389.92 169.93 390.00
  Q 169.46 390.05 169.26 390.49
  Q 167.79 393.81 164.83 394.57
  Q 162.08 395.29 164.72 396.34
  Q 166.30 396.97 168.31 398.53
  Q 168.70 398.83 169.19 398.88
  Q 169.91 398.95 170.46 399.28
  Q 170.43 399.57 170.70 399.58
  L 170.80 401.33
  Q 170.85 402.06 170.18 401.77
  Q 169.64 401.53 169.04 401.28
  Q 168.19 400.91 168.79 401.62
  Q 169.52 402.49 169.95 403.58
  Q 170.08 403.92 169.72 403.91
  Q 168.29 403.87 167.03 404.79
  Q 166.73 405.00 167.07 405.15
  Q 168.79 405.89 169.82 407.77
  Q 169.91 407.93 169.74 408.03
  L 169.73 408.03
  Q 169.55 408.13 169.44 407.96
  Q 168.64 406.75 167.30 406.28
  Q 166.79 406.10 166.28 406.31
  L 160.97 408.44
  Q 160.15 408.77 160.49 407.95
  Q 160.83 407.13 161.51 406.48
  Q 161.82 406.18 162.10 406.51
  Q 162.19 406.61 162.31 406.67
  Q 162.43 406.72 162.54 406.66
  Q 163.45 406.18 163.98 405.31
  C 164.67 404.16 166.18 403.30 167.40 402.83
  Q 167.92 402.63 167.84 402.07
  Q 167.52 399.87 165.58 400.15
  Q 164.96 400.24 164.49 399.81
  Q 163.20 398.63 163.31 396.94
  A 1.07 1.07 0.0 0 0 161.76 395.92
  Q 160.47 396.56 158.99 397.14
  Q 157.69 397.64 155.93 397.80
  Q 149.85 398.33 143.61 400.47
  Q 143.12 400.64 143.29 401.14
  Q 143.73 402.44 143.39 404.09
  Q 143.29 404.61 142.93 404.22
  Q 142.53 403.78 141.97 403.50
  Q 141.51 403.27 141.11 403.59
  Q 140.30 404.21 139.07 403.60
  Q 138.26 403.20 138.69 402.40
  Q 138.86 402.10 139.18 401.95
  Q 140.70 401.29 139.05 401.18
  Q 135.49 400.93 132.03 402.70
  Q 130.01 403.73 130.81 401.62
  Q 131.02 401.06 131.37 400.68
  Q 132.07 399.91 131.35 399.17
  L 128.35 396.10
  Q 126.81 394.52 126.70 396.73
  Q 126.57 399.18 123.78 399.04
  Q 122.76 398.98 120.56 400.68
  Q 120.36 399.27 119.33 399.36
  L 127.01 393.65
  A 1.43 1.42 27.0 0 1 127.89 393.37
  L 129.91 393.40
  Q 130.41 393.40 130.84 393.15
  C 133.38 391.69 136.09 391.21 138.65 389.73
  Q 139.13 389.46 138.80 389.02
  Q 138.30 388.33 137.48 388.42
  Q 136.83 388.50 136.83 387.85
  Q 136.82 387.52 136.98 387.21
  Q 137.22 386.72 136.84 386.34
  Q 134.83 384.29 133.56 381.24
  A 0.42 0.42 0.0 0 0 132.83 381.17
  C 132.22 382.06 132.14 383.38 132.96 384.21
  Q 134.22 385.51 133.91 387.68
  Q 133.83 388.28 133.32 387.95
  Q 132.25 387.24 131.23 386.26
  Q 130.70 385.75 129.86 386.41
  Q 127.74 384.65 129.65 381.95
  C 130.02 381.43 130.43 380.43 130.36 379.63
  Q 130.16 377.25 130.92 375.07
  Q 131.09 374.56 131.51 374.23
  Q 132.88 373.13 133.02 371.86
  Q 133.37 368.79 133.42 365.39
  Q 133.43 365.04 133.51 364.68
  Q 133.65 364.06 132.94 363.53
  Q 133.02 363.38 132.60 363.16
  Q 132.19 362.95 132.39 362.53
  Q 134.32 358.49 137.24 357.33
  Q 149.30 361.52 158.23 354.95
  Q 164.58 350.28 170.05 344.55
  Q 170.84 343.73 170.62 344.84
  Q 170.43 345.85 170.67 346.80
  Q 171.30 349.28 173.30 348.65
  A 1.68 1.67 -5.7 0 0 174.46 347.24
  L 175.60 337.26
  Z
  M 168.89 357.77
  L 168.60 360.35
  Q 168.55 360.83 168.11 361.04
  Q 167.18 361.49 165.78 361.62
  L 161.66 363.47
  Q 161.15 363.70 160.90 363.20
  L 160.28 362.00
  A 0.63 0.62 75.5 0 0 159.71 361.66
  Q 158.54 361.68 158.10 362.64
  A 1.12 1.11 37.8 0 0 158.25 363.81
  Q 158.62 364.26 158.62 364.84
  Q 158.62 365.49 157.99 365.65
  L 156.90 365.92
  Q 156.39 366.05 156.26 366.56
  Q 156.08 367.28 156.71 368.02
  L 156.70 368.52
  Q 156.70 368.98 156.26 369.14
  Q 155.94 369.26 155.52 369.26
  Q 155.17 369.14 154.80 369.21
  Q 154.32 369.31 154.18 369.77
  Q 153.59 371.62 154.91 373.22
  A 0.54 0.53 -25.3 0 1 154.60 374.08
  Q 151.60 374.71 148.98 373.72
  Q 148.49 373.53 148.41 373.01
  L 148.10 371.13
  Q 147.98 370.36 147.22 370.20
  Q 146.23 369.99 145.45 370.76
  Q 145.06 371.15 144.52 371.18
  Q 143.23 371.24 141.81 371.25
  Q 141.46 371.26 141.27 371.42
  Q 141.10 371.57 141.00 371.76
  A 0.72 0.71 22.3 0 0 141.44 372.80
  Q 142.83 373.16 143.81 372.20
  Q 144.18 371.83 144.71 371.91
  Q 146.07 372.11 146.37 373.33
  Q 146.53 373.98 145.86 373.98
  L 143.35 373.99
  Q 142.85 373.99 142.40 374.23
  Q 139.90 375.60 136.82 376.09
  Q 135.94 376.23 136.58 376.85
  L 139.06 379.30
  Q 139.74 379.96 140.60 379.58
  L 145.15 377.53
  Q 145.53 377.36 145.73 377.73
  L 146.43 378.99
  A 0.54 0.53 60.7 0 1 146.23 379.71
  Q 145.25 380.28 144.10 380.19
  Q 140.93 379.93 138.24 382.05
  Q 137.85 382.36 137.73 382.85
  Q 137.26 384.78 137.65 386.46
  A 0.92 0.92 0.0 0 0 138.79 387.13
  Q 142.54 386.06 146.04 384.95
  C 147.99 384.34 150.03 384.23 151.94 383.46
  Q 153.93 382.65 156.14 382.36
  Q 160.97 381.73 165.84 380.11
  Q 174.64 377.17 183.37 373.83
  Q 184.89 373.25 183.53 372.37
  L 183.00 372.02
  Q 181.68 371.15 180.15 371.56
  Q 175.33 372.87 170.46 373.50
  Q 169.64 373.61 170.30 373.10
  Q 173.94 370.28 177.36 368.86
  Q 178.81 368.26 180.22 367.51
  Q 180.99 367.10 180.15 366.87
  Q 177.49 366.12 175.77 367.92
  Q 175.48 368.23 175.11 368.04
  Q 174.49 367.74 174.51 367.10
  Q 174.53 366.61 174.98 366.43
  L 176.64 365.73
  Q 177.16 365.52 177.41 365.01
  L 179.41 360.89
  A 1.26 1.26 0.0 0 0 178.88 359.23
  Q 176.04 357.68 173.45 355.66
  Q 173.02 355.33 172.56 355.60
  L 168.89 357.77
  Z
  M 154.28 363.88
  Q 154.54 363.90 154.81 363.85
  Q 155.22 363.77 155.38 363.39
  Q 155.43 363.27 155.45 363.13
  Q 155.54 362.49 154.90 362.60
  L 152.28 363.05
  Q 151.11 363.26 152.18 363.79
  C 152.98 364.18 153.49 363.83 154.28 363.88
  Z
  M 152.60 366.17
  Q 151.35 366.53 150.11 366.91
  Q 149.43 367.12 149.41 367.83
  Q 149.37 369.32 150.45 370.46
  A 0.65 0.64 36.0 0 0 151.50 370.30
  Q 152.11 369.04 153.42 368.55
  Q 154.03 368.33 154.22 367.71
  Q 154.37 367.24 154.12 366.80
  Q 153.63 365.88 152.60 366.17
  Z"
/>
<path fill="#efe8d1" d="
  M 121.63 364.25
  Q 120.59 365.75 118.46 365.40
  Q 117.23 365.20 116.71 364.42
  Q 115.93 363.27 115.68 362.01
  A 0.29 0.29 0.0 0 0 115.23 361.82
  L 114.39 362.38
  Q 114.07 362.58 114.11 362.96
  Q 114.21 363.87 113.80 365.28
  C 111.74 365.80 109.40 364.92 108.74 362.80
  Q 108.24 361.18 107.46 359.71
  A 1.32 1.30 51.2 0 1 107.61 358.26
  L 109.87 355.57
  A 0.39 0.39 0.0 0 0 109.55 354.93
  Q 109.04 354.95 109.13 355.28
  Q 108.87 353.06 107.92 352.59
  Q 107.34 350.81 105.00 349.25
  Q 104.65 348.71 104.75 348.31
  Q 104.84 347.95 105.20 347.81
  Q 110.20 345.89 114.18 349.50
  Q 114.48 349.78 114.88 349.87
  C 116.82 350.33 119.03 350.37 120.70 351.57
  Q 122.47 352.83 124.59 353.11
  A 1.36 1.35 15.9 0 1 125.65 355.01
  Q 124.67 357.16 122.87 359.08
  Q 122.59 359.37 122.64 359.77
  L 122.79 360.90
  Q 122.85 361.37 122.57 361.77
  Q 121.81 362.84 121.63 364.25
  Z
  M 110.24 350.96
  Q 110.13 350.84 109.99 350.77
  A 0.27 0.27 0.0 0 0 109.62 350.91
  Q 108.90 352.54 109.08 354.17
  Q 109.16 354.87 109.69 354.41
  Q 109.97 354.17 109.92 353.83
  Q 109.86 353.43 110.01 353.07
  Q 110.15 352.72 110.40 352.90
  A 0.41 0.41 0.0 0 0 111.04 352.68
  Q 111.31 351.71 110.52 351.18
  Q 110.37 351.09 110.24 350.96
  Z"
/>
<path fill="#a69f92" d="
  M 92.03 349.47
  Q 93.11 350.16 93.61 350.96
  Q 92.56 350.95 91.81 350.10
  Q 91.61 349.88 91.82 349.67
  Q 91.93 349.56 92.03 349.47
  Z"
/>
<path fill="#e7d8b0" d="
  M 110.52 351.18
  Q 111.31 351.71 111.04 352.68
  A 0.41 0.41 0.0 0 1 110.40 352.90
  Q 110.15 352.72 110.01 353.07
  Q 109.86 353.43 109.92 353.83
  Q 109.97 354.17 109.69 354.41
  Q 109.16 354.87 109.08 354.17
  Q 108.90 352.54 109.62 350.91
  A 0.27 0.27 0.0 0 1 109.99 350.77
  Q 110.13 350.84 110.24 350.96
  Q 110.37 351.09 110.52 351.18
  Z"
/>
<path fill="#efe8d1" d="
  M 92.50 357.60
  A 1.03 1.02 -80.4 0 0 91.36 358.42
  Q 91.03 360.02 89.77 360.16
  A 0.76 0.76 0.0 0 1 88.92 359.33
  Q 89.16 356.77 91.65 356.87
  Q 92.11 356.89 92.43 356.57
  L 92.84 356.15
  A 1.17 1.17 0.0 0 1 93.68 355.82
  Q 95.60 355.88 96.81 354.54
  Q 96.88 354.46 96.95 354.53
  L 97.15 354.73
  A 0.16 0.07 45.0 0 1 97.21 354.89
  C 95.78 355.94 94.45 357.87 92.50 357.60
  Z"
/>
<path fill="#f8e4a4" d="
  M 131.72 361.67
  Q 129.52 361.17 127.89 362.41
  Q 127.54 362.67 127.93 362.86
  L 129.03 363.41
  Q 129.41 363.59 129.65 363.24
  Q 130.07 362.60 131.46 362.72
  L 131.71 363.29
  Q 131.93 363.77 132.44 363.65
  L 132.94 363.53
  Q 133.65 364.06 133.51 364.68
  Q 133.43 365.04 133.42 365.39
  Q 133.37 368.79 133.02 371.86
  Q 132.88 373.13 131.51 374.23
  Q 131.09 374.56 130.92 375.07
  Q 130.16 377.25 130.36 379.63
  C 130.43 380.43 130.02 381.43 129.65 381.95
  Q 127.74 384.65 129.86 386.41
  Q 129.66 387.12 130.49 388.03
  Q 131.32 388.94 132.02 390.17
  Q 132.40 390.84 131.68 390.58
  Q 130.46 390.15 129.23 390.19
  Q 128.74 390.21 128.70 389.72
  L 128.16 383.37
  A 1.09 1.09 0.0 0 0 126.48 382.55
  Q 124.84 383.63 122.71 383.94
  Q 122.16 384.02 121.99 383.48
  Q 121.71 382.55 120.80 382.40
  Q 120.18 382.31 120.06 382.92
  Q 119.87 383.91 120.56 384.60
  Q 121.29 385.33 120.26 385.41
  Q 119.32 385.48 118.91 384.61
  Q 117.95 382.58 116.70 380.67
  Q 116.36 380.15 115.77 379.91
  Q 115.37 379.74 115.11 379.39
  Q 113.29 376.86 110.42 378.85
  A 1.01 1.01 0.0 0 1 108.89 378.35
  Q 108.51 377.25 107.59 376.41
  Q 107.08 375.95 107.71 375.65
  Q 108.33 375.35 108.47 374.72
  Q 108.62 374.08 107.96 374.15
  Q 106.10 374.35 104.52 373.37
  Q 103.98 373.03 103.41 373.34
  Q 102.86 373.64 102.44 374.11
  A 0.42 0.42 0.0 0 0 102.79 374.80
  L 105.01 374.62
  Q 105.72 374.56 105.59 375.26
  L 105.44 376.04
  A 0.81 0.80 21.1 0 0 105.81 376.87
  Q 106.50 377.28 107.19 377.63
  Q 108.21 378.14 107.93 379.35
  Q 107.66 380.53 107.83 381.72
  A 0.40 0.39 -14.4 0 0 108.36 382.03
  L 110.58 381.23
  Q 111.06 381.06 111.14 381.56
  L 111.48 383.69
  Q 111.54 384.05 111.79 384.30
  Q 112.45 384.96 113.41 384.87
  A 1.23 1.22 13.6 0 1 114.56 386.75
  Q 113.20 388.86 111.15 389.51
  A 0.55 0.55 0.0 0 1 110.56 388.64
  L 112.13 386.77
  A 0.68 0.67 -54.5 0 0 111.97 385.76
  Q 110.77 385.04 109.63 385.38
  A 0.70 0.69 -15.5 0 0 109.15 386.22
  Q 109.67 388.35 108.31 390.17
  A 0.86 0.86 0.0 0 1 107.36 390.46
  Q 106.71 390.23 106.72 389.50
  A 1.21 1.19 -20.9 0 1 107.13 388.60
  Q 108.11 387.74 107.97 386.49
  Q 107.91 385.92 107.40 385.65
  L 102.75 383.10
  A 0.47 0.47 0.0 0 0 102.06 383.44
  L 101.99 383.79
  A 1.52 1.51 23.6 0 0 102.57 385.26
  L 104.64 386.84
  Q 105.12 387.20 105.04 387.79
  Q 104.71 390.51 106.99 392.42
  A 0.78 0.78 0.0 0 1 107.21 393.32
  Q 106.68 394.59 105.43 395.64
  Q 105.01 395.99 104.78 395.49
  L 103.25 392.11
  Q 103.00 391.54 102.38 391.47
  L 101.20 391.34
  A 1.14 1.13 -13.5 0 1 100.39 390.85
  Q 99.84 390.03 99.61 389.12
  A 1.25 1.25 0.0 0 0 98.04 388.24
  C 94.78 389.21 91.39 390.13 90.97 394.42
  L 90.26 394.73
  Q 89.43 393.35 89.14 391.78
  Q 89.05 391.29 89.38 390.92
  Q 90.36 389.81 89.22 388.51
  Q 87.41 386.44 85.07 385.93
  Q 84.55 385.82 84.68 385.30
  L 84.92 384.37
  A 0.80 0.79 8.7 0 1 85.74 383.77
  Q 89.39 383.97 91.58 386.57
  A 0.69 0.69 0.0 0 0 92.67 386.52
  Q 93.53 385.25 93.32 383.78
  Q 93.26 383.38 93.67 383.38
  Q 95.35 383.42 95.57 381.76
  Q 95.64 381.21 95.32 380.77
  Q 95.06 380.41 94.97 379.98
  Q 94.89 379.58 95.09 379.22
  Q 97.04 375.75 101.17 373.49
  Q 102.39 372.83 102.98 371.51
  Q 103.23 370.94 103.79 371.21
  L 105.48 372.05
  Q 105.95 372.28 106.12 371.78
  Q 106.17 371.66 106.10 371.52
  Q 105.91 371.08 106.39 371.05
  Q 106.70 371.03 106.81 371.29
  Q 107.04 371.85 107.63 371.69
  Q 107.83 371.64 107.98 371.49
  Q 108.24 371.25 108.59 371.34
  Q 110.31 371.79 112.30 371.26
  A 0.66 0.64 59.4 0 1 112.93 371.43
  L 113.36 371.86
  A 1.15 1.15 0.0 0 0 115.26 371.43
  L 116.63 367.58
  Q 116.80 367.11 116.39 366.81
  Q 115.32 366.05 115.82 364.91
  Q 116.03 364.42 115.57 364.16
  Q 115.45 364.10 115.32 364.08
  Q 115.03 364.04 114.96 364.32
  Q 114.57 365.80 113.80 365.28
  Q 114.21 363.87 114.11 362.96
  Q 114.07 362.58 114.39 362.38
  L 115.23 361.82
  A 0.29 0.29 0.0 0 1 115.68 362.01
  Q 115.93 363.27 116.71 364.42
  Q 117.23 365.20 118.46 365.40
  Q 120.59 365.75 121.63 364.25
  Q 121.58 364.35 121.53 364.45
  L 122.36 366.73
  Q 122.61 367.42 123.34 367.54
  Q 124.88 367.79 126.92 367.12
  Q 127.68 366.87 126.97 366.51
  Q 125.07 365.56 123.75 364.22
  Q 123.07 360.32 123.63 359.15
  Q 124.50 357.32 126.27 357.72
  Q 126.75 357.82 127.18 357.60
  Q 129.03 356.63 130.16 356.91
  A 2.95 2.95 0.0 0 1 132.37 359.91
  Q 132.34 360.54 131.72 361.67
  Z
  M 122.40 371.33
  Q 123.14 371.97 124.17 372.18
  Q 124.88 372.33 124.48 371.72
  Q 124.02 371.01 123.20 370.64
  A 1.25 1.23 -44.0 0 0 122.21 370.63
  Q 121.54 370.93 120.82 370.75
  A 0.86 0.86 0.0 0 0 119.77 371.75
  Q 119.92 372.50 120.40 373.06
  Q 120.95 373.71 121.51 373.07
  Q 122.16 372.34 122.06 371.51
  Q 122.00 370.97 122.40 371.33
  Z
  M 118.79 376.38
  Q 120.03 376.63 119.42 377.74
  Q 118.60 379.24 119.11 380.49
  Q 119.34 381.07 119.97 381.03
  Q 121.56 380.93 122.76 381.90
  Q 122.98 382.08 123.25 382.03
  L 126.94 381.42
  A 0.20 0.20 0.0 0 0 127.06 381.08
  L 120.72 374.62
  Q 120.29 374.19 119.70 374.08
  Q 117.70 373.73 117.03 371.53
  Q 116.92 371.17 116.51 371.05
  Q 115.66 370.80 116.15 371.53
  Q 117.06 372.87 116.78 374.38
  Q 116.64 375.18 117.28 375.69
  Q 117.94 376.21 118.79 376.38
  Z
  M 101.0273 378.1109
  A 0.95 0.95 0.0 0 0 100.3986 376.9236
  L 100.2457 376.8766
  A 0.95 0.95 0.0 0 0 99.0584 377.5052
  L 98.1527 380.4491
  A 0.95 0.95 0.0 0 0 98.7814 381.6364
  L 98.9343 381.6834
  A 0.95 0.95 0.0 0 0 100.1216 381.0548
  L 101.0273 378.1109
  Z"
/>
<path fill="#fef1c5" d="
  M 172.44 358.79
  Q 172.89 358.05 172.98 357.20
  A 0.53 0.53 0.0 0 1 173.78 356.81
  Q 175.62 357.95 176.35 360.30
  A 0.82 0.82 0.0 0 1 175.78 361.33
  Q 173.67 361.91 171.89 361.50
  A 1.09 1.09 0.0 0 1 171.04 360.37
  Q 171.10 359.25 171.67 359.24
  Q 172.18 359.23 172.44 358.79
  Z"
/>
<path fill="#efe8d1" d="
  M 168.89 357.77
  Q 169.75 359.65 169.08 361.42
  Q 168.89 361.91 168.37 361.95
  Q 167.28 362.04 165.78 361.62
  Q 167.18 361.49 168.11 361.04
  Q 168.55 360.83 168.60 360.35
  L 168.89 357.77
  Z"
/>
<path fill="#e7d8b0" d="
  M 85.81 362.50
  Q 87.44 363.45 88.46 364.80
  A 1.22 1.18 -62.5 0 1 88.69 365.57
  L 88.36 370.77
  L 88.35 372.02
  Q 88.34 372.64 87.72 372.61
  Q 86.91 372.57 86.44 373.30
  Q 86.09 373.86 85.63 373.39
  Q 85.38 373.13 85.41 372.79
  L 86.08 367.94
  Q 86.15 367.43 86.62 367.22
  L 87.36 366.88
  Q 87.90 366.63 87.64 366.10
  L 85.81 362.50
  Z"
/>
<path fill="#efe8d1" d="
  M 169.23 366.28
  A 0.40 0.40 0.0 0 1 169.69 366.61
  L 169.71 366.74
  A 1.53 1.47 -9.0 0 1 168.42 368.43
  L 168.11 368.48
  A 1.53 1.47 -9.0 0 1 166.37 367.27
  L 166.35 367.14
  A 0.40 0.40 0.0 0 1 166.68 366.68
  L 169.23 366.28
  Z"
/>
<path fill="#efe8d1" d="
  M 161.63 369.08
  Q 161.23 368.87 161.50 368.51
  Q 162.16 367.66 163.41 367.39
  Q 164.87 367.08 164.27 368.45
  Q 163.56 370.07 161.63 369.08
  Z"
/>
<path fill="#e7d8b0" d="
  M 156.71 368.02
  Q 157.66 368.54 157.97 369.14
  Q 158.27 369.70 157.65 369.60
  L 155.52 369.26
  Q 155.94 369.26 156.26 369.14
  Q 156.70 368.98 156.70 368.52
  L 156.71 368.02
  Z"
/>
<path fill="#f8e4a4" d="
  M 88.36 370.77
  L 88.80 373.76
  A 1.69 1.66 -70.0 0 0 89.19 374.62
  Q 90.70 376.39 90.53 378.72
  Q 90.34 381.35 88.91 379.14
  C 87.77 377.38 85.03 374.95 85.41 372.79
  Q 85.38 373.13 85.63 373.39
  Q 86.09 373.86 86.44 373.30
  Q 86.91 372.57 87.72 372.61
  Q 88.34 372.64 88.35 372.02
  L 88.36 370.77
  Z"
/>
<path fill="#fef1c5" d="
  M 215.18 372.97
  A 0.18 0.18 0.0 0 1 215.07 373.20
  L 214.89 373.28
  A 11.34 0.46 -21.4 0 1 204.16 376.98
  L 204.13 376.89
  A 11.34 0.46 -21.4 0 1 214.52 372.33
  L 214.70 372.25
  A 0.18 0.18 0.0 0 1 214.94 372.35
  L 215.18 372.97
  Z"
/>
<ellipse fill="#a69f92" cx="0.00" cy="0.00" transform="translate(91.59,373.81) rotate(40.5)" rx="0.83" ry="0.61"/>
<path fill="#fef1c5" d="
  M 155.88 377.21
  Q 155.78 377.48 155.54 377.66
  Q 155.14 377.95 154.64 377.92
  C 150.56 377.74 151.83 380.92 149.16 381.88
  Q 148.29 382.20 148.64 381.35
  Q 148.95 380.62 149.00 379.85
  Q 149.04 379.24 148.80 378.68
  Q 148.12 377.04 148.08 375.45
  A 0.59 0.58 4.1 0 1 148.77 374.86
  C 150.40 375.16 152.07 375.96 153.73 375.60
  Q 156.51 374.99 159.37 374.46
  Q 159.51 374.44 159.55 374.57
  L 159.62 374.83
  Q 159.64 374.90 159.57 374.92
  Q 157.72 375.41 156.52 376.30
  Q 156.07 376.63 155.88 377.21
  Z"
/>
<path fill="#efe8d1" d="
  M 192.92 374.48
  Q 192.54 376.51 194.99 377.00
  Q 195.29 377.06 195.39 377.34
  Q 195.44 377.50 195.43 377.67
  Q 195.42 377.83 195.27 377.87
  Q 192.61 378.51 190.25 376.68
  Q 189.99 376.47 189.65 376.43
  Q 189.32 376.40 188.96 376.41
  Q 189.70 376.12 191.80 376.50
  A 0.28 0.28 0.0 0 0 192.13 376.26
  Q 192.27 375.25 192.92 374.48
  Z"
/>
<path fill="#efe8d1" d="
  M 190.99 380.15
  Q 195.83 381.50 193.90 386.28
  Q 193.71 386.75 193.22 386.86
  L 190.18 387.58
  Q 189.33 387.78 189.59 386.95
  Q 190.28 384.69 192.53 385.04
  Q 193.49 385.19 193.52 384.14
  A 1.17 1.15 12.4 0 0 192.81 383.05
  L 187.89 380.95
  Q 188.42 380.68 189.26 380.94
  Q 189.69 381.08 189.95 380.71
  Q 190.28 380.25 190.99 380.15
  Z"
/>
<path fill="#e7d8b0" d="
  M 81.54 390.01
  A 1.49 1.46 -72.1 0 0 79.70 390.97
  Q 79.64 391.14 79.46 391.10
  Q 79.46 391.10 79.45 391.10
  L 79.45 391.10
  Q 79.33 391.04 79.38 390.91
  Q 80.28 388.77 83.46 386.64
  A 0.80 0.80 0.0 0 1 84.70 387.32
  L 84.69 388.03
  Q 84.68 389.01 83.89 389.61
  Q 82.83 390.42 81.54 390.01
  Z"
/>
<path fill="#e7d8b0" d="
  M 119.48 389.34
  A 0.21 0.21 0.0 0 1 119.60 389.62
  L 119.54 389.77
  A 4.10 0.70 -69.3 0 1 117.44 393.36
  L 117.40 393.35
  A 4.10 0.70 -69.3 0 1 118.19 389.27
  L 118.25 389.11
  A 0.21 0.21 0.0 0 1 118.52 388.98
  L 119.48 389.34
  Z"
/>
<path fill="#efe8d1" d="
  M 170.70 399.58
  Q 170.43 399.57 170.46 399.28
  Q 170.73 399.27 170.92 399.09
  Q 171.32 398.69 170.85 398.38
  Q 170.51 398.15 170.09 398.09
  Q 169.49 398.00 169.44 397.39
  Q 169.37 396.43 170.34 396.12
  Q 172.49 395.42 172.03 393.37
  Q 171.92 392.90 172.35 392.68
  Q 172.74 392.47 173.15 392.64
  Q 173.52 392.79 173.71 393.15
  Q 173.92 393.57 173.93 394.03
  A 0.62 0.61 -85.7 0 0 174.45 394.64
  Q 176.35 394.96 177.61 394.60
  Q 185.39 392.37 193.35 389.77
  Q 193.60 389.69 193.65 389.95
  L 193.72 390.27
  Q 193.78 390.54 193.53 390.67
  Q 184.30 395.54 174.48 396.87
  A 1.23 1.23 0.0 0 1 173.28 396.33
  Q 173.13 396.10 173.04 395.84
  Q 172.57 394.44 171.97 395.79
  Q 171.22 397.50 171.11 399.21
  Q 171.10 399.38 170.95 399.47
  Q 170.84 399.53 170.70 399.58
  Z"
/>
<path fill="#e7d8b0" d="
  M 90.26 394.73
  L 90.97 394.42
  Q 90.83 396.96 92.44 398.05
  Q 92.95 398.40 93.05 397.79
  Q 93.66 394.15 95.21 390.72
  Q 95.53 390.01 95.96 390.67
  L 96.23 391.08
  A 1.71 1.71 0.0 0 1 96.37 392.67
  L 93.01 400.51
  Q 92.68 401.29 92.38 400.49
  L 90.26 394.73
  Z"
/>
<path fill="#f8e4a4" d="
  M 83.12 396.60
  C 82.58 396.22 81.88 396.10 81.36 395.68
  Q 80.62 395.08 81.58 395.12
  L 84.00 395.20
  Q 84.79 395.23 84.63 396.01
  L 84.56 396.36
  Q 84.43 396.98 83.80 396.88
  Q 83.43 396.82 83.12 396.60
  Z"
/>
<path fill="#f8e4a4" d="
  M 85.00 398.61
  L 86.97 400.60
  Q 87.60 401.25 86.70 401.22
  Q 86.13 401.21 85.87 400.72
  C 85.54 400.12 84.93 399.39 84.74 398.76
  Q 84.56 398.16 85.00 398.61
  Z"
/>
<path fill="#efe8d1" d="
  M 156.60 398.82
  Q 158.74 401.21 160.70 399.34
  A 0.20 0.20 0.0 0 1 161.03 399.49
  Q 160.99 400.25 161.36 400.92
  Q 161.53 401.23 161.32 401.52
  Q 160.56 402.58 159.30 402.96
  Q 159.01 403.05 158.80 402.82
  Q 157.04 400.92 156.27 399.03
  Q 155.85 397.98 156.60 398.82
  Z"
/>
<path fill="#efe8d1" d="
  M 119.33 399.36
  Q 120.36 399.27 120.56 400.68
  Q 118.46 402.18 117.09 399.94
  A 0.55 0.54 -27.4 0 1 117.34 399.16
  Q 118.28 398.75 119.33 399.36
  Z"
/>
<path fill="#efe8d1" d="
  M 172.32 404.53
  Q 172.24 404.02 172.11 403.53
  Q 171.97 403.03 172.30 402.62
  Q 172.56 402.31 172.98 402.25
  Q 173.87 402.12 173.41 402.89
  Q 173.33 403.03 173.31 403.18
  Q 173.25 403.65 173.45 404.07
  Q 173.90 405.04 172.84 405.81
  Q 172.21 406.27 171.85 405.58
  A 0.30 0.30 0.0 0 1 172.03 405.16
  Q 172.24 405.09 172.30 404.88
  Q 172.35 404.71 172.32 404.53
  Z"
/>
<path fill="#fef1c5" d="
  M 113.99 405.24
  C 111.79 405.60 110.09 407.10 108.60 408.65
  A 0.91 0.89 -58.2 0 1 107.67 408.88
  Q 107.48 408.82 107.34 408.68
  Q 107.06 408.42 107.25 408.10
  Q 109.36 404.50 112.75 402.60
  Q 113.76 402.03 114.24 403.08
  L 114.66 403.98
  Q 115.16 405.05 113.99 405.24
  Z"
/>
<path fill="#efe8d1" d="
  M 117.68 405.06
  Q 117.49 404.95 117.39 404.75
  Q 117.17 404.31 117.67 404.29
  Q 118.67 404.25 119.01 405.26
  A 0.45 0.45 0.0 0 1 118.39 405.80
  Q 117.91 405.57 117.68 405.06
  Z"
/>
<path fill="#efe8d1" d="
  M 138.13 407.37
  Q 137.94 406.96 138.25 407.29
  Q 139.70 408.82 139.95 410.96
  Q 140.03 411.62 139.42 411.94
  A 0.54 0.54 0.0 0 1 138.65 411.32
  Q 139.13 409.58 138.13 407.37
  Z"
/>
<ellipse fill="#efe8d1" cx="0.00" cy="0.00" transform="translate(156.18,407.98) rotate(96.8)" rx="0.90" ry="0.37"/>
<path fill="#e7d8b0" d="
  M 124.24 408.16
  A 0.12 0.12 0.0 0 1 124.36 408.28
  L 124.36 408.32
  A 2.28 1.12 -1.9 0 1 122.12 409.51
  L 121.80 409.52
  A 2.28 1.12 -1.9 0 1 119.49 408.48
  L 119.48 408.44
  A 0.12 0.12 0.0 0 1 119.60 408.32
  L 124.24 408.16
  Z"
/>
<path fill="#efe8d1" d="
  M 151.74 414.96
  Q 151.88 415.81 151.12 415.40
  Q 150.22 414.92 149.94 413.47
  Q 149.84 412.92 150.36 413.13
  Q 151.52 413.59 151.74 414.96
  Z"
/>
</svg>
