<svg width="241" height="241" viewBox="0 0 241 241" fill="none" xmlns="http://www.w3.org/2000/svg">
<path d="M217 120.5C230.255 120.5 241.24 131.349 238.618 144.342C235.749 158.555 230.325 172.199 222.544 184.589C210.484 203.79 193.252 219.199 172.828 229.045C152.403 238.891 129.615 242.775 107.082 240.251C84.5496 237.726 63.1862 228.895 45.4474 214.773C27.7085 200.65 14.314 181.81 6.80323 160.416C-0.707587 139.022 -2.02997 115.944 2.98804 93.8319C8.00605 71.7202 19.1608 51.473 35.1705 35.4169C45.501 25.0565 57.5824 16.7125 70.7906 10.731C82.865 5.26298 95.9004 13.5375 98.8713 26.4551L116.218 101.879C118.724 112.777 128.424 120.5 139.607 120.5L217 120.5Z" fill="#282A36"/>
<path d="M207.166 85.1928C217.765 82.3248 224.225 71.1867 219.344 61.2623C212.618 47.5873 202.861 35.5532 190.728 26.1518C178.595 16.7503 164.559 10.3472 149.738 7.32597C138.982 5.13335 130 14.3175 130 25.3986L130 79.9249C130 93.1176 142.392 102.72 155.011 99.3053L207.166 85.1928Z" fill="#BBFF1A"/>
</svg>
